<svg enable-background="new 0 0 512 512" viewBox="0 0 512 512" xmlns="http://www.w3.org/2000/svg" xmlns:xlink="http://www.w3.org/1999/xlink"><linearGradient id="lg1"><stop offset=".0056" stop-color="#d1d7db"/><stop offset=".047" stop-color="#dadfe2"/><stop offset=".1548" stop-color="#ebedef"/><stop offset=".289" stop-color="#f6f7f8"/><stop offset=".4773" stop-color="#fdfdfe"/><stop offset="1" stop-color="#fff"/></linearGradient><linearGradient id="SVGID_1_" gradientUnits="userSpaceOnUse" x1="256" x2="256" xlink:href="#lg1" y1="448.857" y2="61.096"/><linearGradient id="SVGID_2_" gradientUnits="userSpaceOnUse" x1="256" x2="256" xlink:href="#lg1" y1="-8.462" y2="636.422"/><linearGradient id="SVGID_3_" gradientUnits="userSpaceOnUse" x1="346" x2="346" y1="308.209" y2="503.457"><stop offset="0" stop-color="#064476" stop-opacity="0"/><stop offset=".3155" stop-color="#053b67" stop-opacity=".121"/><stop offset=".9207" stop-color="#032440" stop-opacity=".353"/><stop offset="1" stop-color="#03213a" stop-opacity=".383"/></linearGradient><linearGradient id="SVGID_4_" gradientUnits="userSpaceOnUse" x1="305.336" x2="463.297" y1="371" y2="371"><stop offset="0" stop-color="#39934a"/><stop offset=".5052" stop-color="#39b54a"/><stop offset="1" stop-color="#39934a"/></linearGradient><linearGradient id="SVGID_5_" gradientUnits="userSpaceOnUse" x1="386" x2="386" y1="335.412" y2="480.499"><stop offset="0" stop-color="#74b54a"/><stop offset="1" stop-color="#39b54a"/></linearGradient><g id="guides_1_"/><g id="outline"><path d="m376 36h-240c-27.57 0-50 22.43-50 50v340c0 27.57 22.43 50 50 50h240c27.57 0 50-22.43 50-50v-340c0-27.57-22.43-50-50-50z"/><path d="m486 401.294c0-52.545-44.859-95.294-100-95.294s-100 42.749-100 95.294c0 1.451.042 2.931.128 4.564-.085 1.606-.128 3.222-.128 4.848 0 52.545 44.859 95.294 100 95.294s100-42.749 100-95.294c0-1.626-.044-3.242-.128-4.848.086-1.633.128-3.113.128-4.564z"/></g><g id="icon"><path d="m376 56h-240c-16.5 0-30 13.5-30 30v340c0 16.5 13.5 30 30 30h240c16.5 0 30-13.5 30-30v-340c0-16.5-13.5-30-30-30z" fill="url(#SVGID_1_)"/><path d="m376 76h-240c-5.421 0-10 4.579-10 10v340c0 5.421 4.579 10 10 10h240c5.421 0 10-4.579 10-10v-340c0-5.421-4.579-10-10-10z" fill="url(#SVGID_2_)"/><g><path d="m156.532 118.834h7.865l3.495 16.945 3.647-16.945h6.915l3.952 17.098 3.685-17.098h7.219l-6.345 27.166h-8.131l-4.179-17.25-4.217 17.25h-7.599z"/><path d="m195.861 117.39h6.801v11.93c1.063-2.052 3.229-3.723 6.535-3.723 3.837 0 6.497 2.394 6.497 7.485v12.918h-6.801v-11.55c0-2.242-.874-3.343-2.85-3.343-2.014 0-3.381 1.216-3.381 3.761v11.132h-6.801z"/><path d="m219.421 120.734c0-2.014 1.596-3.534 3.723-3.534 2.128 0 3.762 1.52 3.762 3.534s-1.634 3.495-3.762 3.495c-2.127 0-3.723-1.481-3.723-3.495zm.342 5.395h6.801v19.871h-6.801z"/><path d="m231.695 139.617v-8.853h-2.394v-4.635h2.394v-4.142h6.801v4.142h3.914v4.635h-3.914v8.207c0 1.444.722 2.089 2.014 2.089.76 0 1.33-.114 1.938-.342v5.167c-.874.228-2.166.57-3.761.57-4.485.001-6.992-2.165-6.992-6.838z"/><path d="m244.5 136.312v-.304c0-6.383 4.75-10.41 10.752-10.41 5.433 0 10.106 3.115 10.106 10.258v1.786h-13.982c.19 2.622 1.71 4.142 4.142 4.142 2.241 0 3.192-1.026 3.458-2.356h6.383c-.607 4.483-4.064 7.029-10.068 7.029-6.231-.001-10.791-3.648-10.791-10.145zm14.248-2.508c-.113-2.394-1.291-3.723-3.495-3.723-2.052 0-3.458 1.33-3.799 3.723z"/><path d="m268.479 117.39h6.764v28.61h-6.764z"/><path d="m279.307 120.734c0-2.014 1.596-3.534 3.725-3.534 2.127 0 3.762 1.52 3.762 3.534s-1.635 3.495-3.762 3.495c-2.13 0-3.725-1.481-3.725-3.495zm.343 5.395h6.801v19.871h-6.801z"/><path d="m289.34 139.693h6.27c.227 1.444.873 2.242 2.811 2.242 1.672 0 2.432-.646 2.432-1.634 0-.95-.949-1.406-3.686-1.786-5.318-.684-7.561-2.242-7.561-6.383 0-4.407 3.914-6.535 8.512-6.535 4.9 0 8.32 1.671 8.775 6.421h-6.154c-.266-1.33-.988-1.976-2.547-1.976-1.48 0-2.24.646-2.24 1.558 0 .95.912 1.33 3.344 1.634 5.508.684 8.168 2.127 8.168 6.383 0 4.711-3.496 6.839-9.004 6.839-5.663 0-8.968-2.356-9.12-6.763z"/><path d="m311.152 139.617v-8.853h-2.395v-4.635h2.395v-4.142h6.801v4.142h3.912v4.635h-3.912v8.207c0 1.444.721 2.089 2.014 2.089.76 0 1.33-.114 1.938-.342v5.167c-.875.228-2.166.57-3.762.57-4.483.001-6.991-2.165-6.991-6.838z"/></g><path d="m386 306c-55.141 0-100 42.749-100 95.294 0 1.451.042 2.931.128 4.564-.085 1.606-.128 3.222-.128 4.848 0 16.383 4.362 31.814 12.036 45.294h77.964c16.5 0 30-13.5 30-30v-118.084c-6.464-1.255-13.153-1.916-20-1.916z" fill="url(#SVGID_3_)"/><g><path d="m186 176h170v10h-170z" fill="#d1d7db"/><path d="m186 186h170v10h-170z" fill="#fff"/></g><g><path d="m186 216h170v10h-170z" fill="#d1d7db"/><path d="m186 226h170v10h-170z" fill="#fff"/></g><g><path d="m186 256h170v10h-170z" fill="#d1d7db"/><path d="m186 266h170v10h-170z" fill="#fff"/></g><g><path d="m186 296h170v10h-170z" fill="#d1d7db"/><path d="m186 306h170v10h-170z" fill="#fff"/></g><g><path d="m186 336h70v10h-70z" fill="#d1d7db"/><path d="m186 346h70v10h-70z" fill="#fff"/></g><g><path d="m466 401.294c0-41.584-35.817-75.294-80-75.294s-80 33.71-80 75.294v14.706h160z" fill="url(#SVGID_4_)"/><ellipse cx="386" cy="410.706" fill="url(#SVGID_5_)" rx="80" ry="75.294"/><path d="m386 339.412c43.47 0 78.816 32.638 79.946 73.294.018-.667.054-1.329.054-2 0-41.584-35.817-75.294-80-75.294s-80 33.711-80 75.294c0 .671.035 1.333.054 2 1.13-40.656 36.476-73.294 79.946-73.294z" fill="#7dce49"/><path d="m378.426 413.574-21.213-21.214-21.213 21.214 21.213 21.213 21.213 21.213 63.64-63.64-21.213-21.213z" fill="#fff"/></g><g fill="#d1d7db"><circle cx="161" cy="181" r="5"/><circle cx="161" cy="221" r="5"/><circle cx="161" cy="261" r="5"/><circle cx="161" cy="301" r="5"/><circle cx="161" cy="341" r="5"/></g></g></svg>