<svg width="50" height="50" viewBox="0 0 50 50" fill="none" xmlns="http://www.w3.org/2000/svg">
<path fill-rule="evenodd" clip-rule="evenodd" d="M21.1806 19.6389C21.1833 19.945 21.0949 20.245 20.9266 20.5006C20.7582 20.7563 20.5176 20.956 20.2353 21.0744C19.9531 21.1928 19.642 21.2245 19.3416 21.1655C19.0413 21.1064 18.7653 20.9593 18.5489 20.7429C18.3324 20.5264 18.1853 20.2505 18.1263 19.9501C18.0672 19.6498 18.0989 19.3387 18.2173 19.0564C18.3357 18.7741 18.5355 18.5335 18.7911 18.3652C19.0468 18.1968 19.3467 18.1084 19.6528 18.1111C20.058 18.1111 20.4466 18.2721 20.7331 18.5586C21.0196 18.8451 21.1806 19.2337 21.1806 19.6389Z" fill="url(#paint0_linear_26_183)"/>
<path fill-rule="evenodd" clip-rule="evenodd" d="M9.72217 29.3612C10.104 29.3976 10.4586 29.575 10.7166 29.8588C10.9747 30.1425 11.1177 30.5123 11.1177 30.8959C11.1177 31.2795 10.9747 31.6493 10.7166 31.9331C10.4586 32.2169 10.104 32.3943 9.72217 32.4306C9.50836 32.451 9.29265 32.4265 9.08888 32.3586C8.8851 32.2907 8.69776 32.181 8.53885 32.0365C8.37994 31.8921 8.25298 31.716 8.1661 31.5195C8.07922 31.3231 8.03434 31.1107 8.03434 30.8959C8.03434 30.6811 8.07922 30.4687 8.1661 30.2723C8.25298 30.0759 8.37994 29.8998 8.53885 29.7553C8.69776 29.6108 8.8851 29.5011 9.08888 29.4332C9.29265 29.3654 9.50836 29.3408 9.72217 29.3612Z" fill="url(#paint1_linear_26_183)"/>
<path fill-rule="evenodd" clip-rule="evenodd" d="M22.8334 15.1112C22.6039 15.1108 22.3771 15.061 22.1686 14.9651C21.9601 14.8693 21.7747 14.7296 21.625 14.5556C19.9753 12.6169 19.0651 10.1568 19.0556 7.61117V4.29172C19.0626 3.89479 19.2225 3.51586 19.5019 3.23385C19.7813 2.95185 20.1587 2.7885 20.5556 2.77783C20.9621 2.77782 21.3521 2.93833 21.6408 3.22445C21.9296 3.51058 22.0936 3.89915 22.0973 4.30561V7.62505C22.1161 9.45841 22.7856 11.2255 23.9861 12.6112C24.1699 12.8339 24.2868 13.1041 24.3232 13.3905C24.3597 13.677 24.3142 13.9679 24.1921 14.2295C24.07 14.4912 23.8763 14.7128 23.6333 14.8689C23.3904 15.0249 23.1082 15.1089 22.8195 15.1112H22.8334Z" fill="url(#paint2_linear_26_183)"/>
<path fill-rule="evenodd" clip-rule="evenodd" d="M13.472 14.4305C13.3163 14.4871 13.1516 14.5153 12.9859 14.5139C12.6629 14.5129 12.3484 14.4105 12.0867 14.2211C11.825 14.0317 11.6294 13.7649 11.5276 13.4583C11.2663 12.6758 10.8267 11.9648 10.2433 11.3815C9.66 10.7981 8.94898 10.3585 8.16648 10.0972C6.93151 9.68441 5.80937 8.99024 4.88863 8.0695C3.96788 7.14875 3.27372 6.02662 2.86093 4.79165C2.732 4.40671 2.76127 3.98633 2.9423 3.62298C3.12332 3.25963 3.44127 2.98307 3.8262 2.85415C4.21114 2.72522 4.63152 2.75449 4.99487 2.93552C5.35822 3.11654 5.63478 3.43449 5.7637 3.81942C6.02738 4.60443 6.46934 5.31767 7.05489 5.90323C7.64045 6.48879 8.3537 6.93074 9.1387 7.19442C10.3726 7.60913 11.4938 8.30395 12.4143 9.22443C13.3347 10.1449 14.0296 11.266 14.4443 12.5C14.5073 12.6906 14.5321 12.8917 14.5173 13.0919C14.5026 13.2921 14.4485 13.4874 14.3582 13.6667C14.2679 13.846 14.1432 14.0058 13.9911 14.1368C13.8391 14.2679 13.6627 14.3677 13.472 14.4305Z" fill="url(#paint3_linear_26_183)"/>
<path fill-rule="evenodd" clip-rule="evenodd" d="M3.29159 24.6251C4.26888 23.7649 5.43157 23.1419 6.68909 22.8046C7.9466 22.4673 9.265 22.4249 10.5416 22.6806L13.9027 23.3751C14.3024 23.4561 14.6535 23.6926 14.8788 24.0325C15.1041 24.3724 15.1851 24.7879 15.1041 25.1876C15.0231 25.5873 14.7866 25.9384 14.4467 26.1637C14.1067 26.389 13.6913 26.47 13.2916 26.389L9.93048 25.6945C9.12073 25.5337 8.28481 25.5615 7.48756 25.7759C6.69031 25.9903 5.95315 26.3854 5.33326 26.9306C5.05147 27.1844 4.68469 27.3232 4.30548 27.3195C4.09044 27.3173 3.8782 27.2704 3.68217 27.182C3.48615 27.0935 3.31059 26.9654 3.16659 26.8056C3.03128 26.6544 2.92716 26.478 2.86019 26.2864C2.79322 26.0949 2.76473 25.892 2.77634 25.6894C2.78796 25.4868 2.83945 25.2885 2.92787 25.1059C3.01629 24.9232 3.13989 24.7599 3.29159 24.6251Z" fill="url(#paint4_linear_26_183)"/>
<path fill-rule="evenodd" clip-rule="evenodd" d="M5.55533 15.6944C5.63942 15.6623 5.71539 15.6121 5.77781 15.5472C5.84024 15.4824 5.88757 15.4046 5.91644 15.3194C5.99977 15.111 6.11088 14.8055 6.22199 14.486C6.2686 14.3688 6.34887 14.268 6.45268 14.1963C6.55649 14.1246 6.67919 14.0853 6.80533 14.0833C6.93 14.0843 7.05137 14.1234 7.15316 14.1954C7.25494 14.2674 7.33227 14.3688 7.37477 14.486L7.69422 15.3194C7.72308 15.4046 7.77042 15.4824 7.83284 15.5472C7.89527 15.6121 7.97124 15.6623 8.05533 15.6944L8.88866 15.9999C9.007 16.0407 9.10955 16.1176 9.18182 16.2197C9.25409 16.3219 9.29244 16.4442 9.29144 16.5694C9.29327 16.6964 9.25546 16.8208 9.18327 16.9254C9.11108 17.0299 9.00811 17.1094 8.88866 17.1527L8.05533 17.4583C7.97265 17.4888 7.89758 17.5369 7.83524 17.5993C7.77291 17.6616 7.7248 17.7367 7.69422 17.8194L7.37477 18.6666C7.33171 18.7823 7.25383 18.8819 7.15185 18.9515C7.04987 19.0212 6.9288 19.0575 6.80533 19.0555C6.68036 19.0564 6.55798 19.0198 6.454 18.9505C6.35002 18.8812 6.2692 18.7823 6.22199 18.6666C6.11088 18.3333 5.99977 18.0277 5.91644 17.8194C5.88585 17.7367 5.83774 17.6616 5.77541 17.5993C5.71308 17.5369 5.638 17.4888 5.55533 17.4583L4.70811 17.1527C4.59239 17.1055 4.49349 17.0247 4.42417 16.9207C4.35485 16.8167 4.31829 16.6943 4.31922 16.5694C4.31721 16.4459 4.35353 16.3248 4.42317 16.2228C4.49282 16.1209 4.59236 16.043 4.70811 15.9999L5.55533 15.6944Z" fill="url(#paint5_linear_26_183)"/>
<path fill-rule="evenodd" clip-rule="evenodd" d="M30.9444 9.48619L30.0972 9.79175C30.0158 9.82458 29.9419 9.87348 29.8798 9.93552C29.8178 9.99757 29.7689 10.0715 29.7361 10.1529C29.6666 10.3612 29.5555 10.6667 29.4305 11.0001C29.3839 11.1173 29.3036 11.2181 29.1998 11.2898C29.096 11.3615 28.9733 11.4008 28.8472 11.4029C28.7225 11.4018 28.6011 11.3627 28.4993 11.2907C28.3976 11.2187 28.3202 11.1173 28.2777 11.0001C28.1527 10.6667 28.0416 10.3612 27.9722 10.1529C27.9393 10.0715 27.8904 9.99757 27.8284 9.93552C27.7663 9.87348 27.6924 9.82458 27.6111 9.79175L26.7638 9.48619C26.6518 9.43538 26.5568 9.35331 26.4903 9.24983C26.4238 9.14636 26.3885 9.02587 26.3888 8.90286C26.3877 8.78142 26.4227 8.6624 26.4895 8.56098C26.5563 8.45955 26.6518 8.38033 26.7638 8.33341L27.6111 8.02786C27.6924 7.99503 27.7663 7.94613 27.8284 7.88408C27.8904 7.82204 27.9393 7.74812 27.9722 7.66675C27.9722 7.45841 28.1527 7.15286 28.2777 6.81953C28.3202 6.70232 28.3976 6.60091 28.4993 6.52892C28.6011 6.45692 28.7225 6.41778 28.8472 6.41675C28.9733 6.41879 29.096 6.45814 29.1998 6.52981C29.3036 6.60149 29.3839 6.7023 29.4305 6.81953C29.5555 7.15286 29.6666 7.45841 29.7361 7.66675C29.7689 7.74812 29.8178 7.82204 29.8798 7.88408C29.9419 7.94613 30.0158 7.99503 30.0972 8.02786L30.9444 8.33341C31.0616 8.37591 31.163 8.45324 31.235 8.55503C31.307 8.65682 31.3461 8.77819 31.3472 8.90286C31.3451 9.02899 31.3058 9.1517 31.2341 9.25551C31.1624 9.35932 31.0616 9.43959 30.9444 9.48619Z" fill="url(#paint6_linear_26_183)"/>
<defs>
<linearGradient id="paint0_linear_26_183" x1="20.5497" y1="20.1614" x2="17.9868" y2="19.1083" gradientUnits="userSpaceOnUse">
<stop stop-color="#FFCE00"/>
<stop offset="0.510417" stop-color="#FF0828"/>
<stop offset="1" stop-color="#E700CB"/>
</linearGradient>
<linearGradient id="paint1_linear_26_183" x1="10.4867" y1="31.4046" x2="7.92385" y2="30.3515" gradientUnits="userSpaceOnUse">
<stop stop-color="#FFCE00"/>
<stop offset="0.510417" stop-color="#FF0828"/>
<stop offset="1" stop-color="#E700CB"/>
</linearGradient>
<linearGradient id="paint2_linear_26_183" x1="23.255" y1="10.9793" x2="18.2793" y2="10.104" gradientUnits="userSpaceOnUse">
<stop stop-color="#FFCE00"/>
<stop offset="0.510417" stop-color="#FF0828"/>
<stop offset="1" stop-color="#E700CB"/>
</linearGradient>
<linearGradient id="paint3_linear_26_183" x1="12.1191" y1="10.5811" x2="2.36119" y2="6.57114" gradientUnits="userSpaceOnUse">
<stop stop-color="#FFCE00"/>
<stop offset="0.510417" stop-color="#FF0828"/>
<stop offset="1" stop-color="#E700CB"/>
</linearGradient>
<linearGradient id="paint4_linear_26_183" x1="12.6053" y1="25.7103" x2="6.93532" y2="19.715" gradientUnits="userSpaceOnUse">
<stop stop-color="#FFCE00"/>
<stop offset="0.510417" stop-color="#FF0828"/>
<stop offset="1" stop-color="#E700CB"/>
</linearGradient>
<linearGradient id="paint5_linear_26_183" x1="8.27397" y1="17.3897" x2="4.14098" y2="15.6914" gradientUnits="userSpaceOnUse">
<stop stop-color="#FFCE00"/>
<stop offset="0.510417" stop-color="#FF0828"/>
<stop offset="1" stop-color="#E700CB"/>
</linearGradient>
<linearGradient id="paint6_linear_26_183" x1="30.3325" y1="9.73243" x2="26.2045" y2="8.04558" gradientUnits="userSpaceOnUse">
<stop stop-color="#FFCE00"/>
<stop offset="0.510417" stop-color="#FF0828"/>
<stop offset="1" stop-color="#E700CB"/>
</linearGradient>
</defs>
</svg>
