<svg width="261" height="53" viewBox="0 0 261 53" fill="none" xmlns="http://www.w3.org/2000/svg">
<g clip-path="url(#clip0_20_137)">
<path d="M0.382558 35.9767L3.68212 35.4323V3.90943L0 3.41457L0.191279 0H23.2404L22.6665 9.55089L18.0759 9.40243L17.7889 3.41457H10.6638V17.6172H13.7721L14.4894 14.3511L17.6933 14.45V24.2484H14.4894L13.7243 20.8833H10.616V35.9272H17.7889L18.4584 29.395L23.2882 29.5434L23.6708 39.4902H0.239099L0.382558 35.9767Z" fill="#E0E0E0"/>
<path d="M25.8226 39.5397L25.966 36.62L28.5483 36.0757V16.1821L25.5356 15.8852V12.916L33.0912 11.7778L33.665 13.4603V14.5985C35.4821 12.6191 37.6819 11.4314 40.5032 11.4314C44.6157 11.4314 47.6762 14.0047 47.6762 19.1018V36.0262L50.4019 36.5705L50.2584 39.4902H41.2683V20.5864C41.2683 17.8646 40.3119 16.3306 37.921 16.3306C37.108 16.3306 36.5342 16.479 35.9125 16.7264C35.53 17.0729 35.1474 17.5677 34.8127 18.0131V36.1251L37.5384 36.6695L37.3471 39.5892H25.8226V39.5397Z" fill="#E0E0E0"/>
<path d="M170.286 39.5397L170.382 36.62L172.964 36.0757V16.1821L169.951 15.8852V12.916L177.507 11.7778L178.081 13.4603V14.5985C179.898 12.6191 182.097 11.4314 184.919 11.4314C189.031 11.4314 192.092 14.0047 192.092 19.1018V36.0262L194.817 36.5705L194.674 39.4902H185.732V20.5864C185.732 17.8646 184.775 16.3306 182.384 16.3306C181.571 16.3306 180.998 16.479 180.376 16.7264C179.993 17.0729 179.611 17.5677 179.276 18.0131V36.1251L182.002 36.6695L181.81 39.5892H170.286V39.5397Z" fill="#E0E0E0"/>
<path d="M64.6524 38.9953C63.6004 39.4407 61.7354 39.9355 59.2966 39.9355C56.0927 39.9355 53.1278 38.4509 53.1278 33.6013V16.182L50.0674 15.6872L50.2108 12.2231L53.6539 12.0747L55.1363 6.77961L59.5357 6.58167V12.2726H64.2698L63.9351 15.7367L59.5835 16.2315V33.6508C59.5835 35.0859 60.3486 36.0261 61.7832 36.0261H64.3655L64.6524 38.9953Z" fill="#E0E0E0"/>
<path d="M243.641 39.5397L243.737 36.6694L246.176 36.0756V16.1821L243.307 15.8851V12.9159L251.149 11.7778L251.675 13.7077V14.3511C253.731 12.7675 256.505 11.7283 259.852 11.7283L261 12.7675L260.187 20.2894L255.883 20.141L255.453 16.1326C254.449 16.281 253.492 16.5779 252.679 17.1718V36.1251L255.405 36.7189L255.214 39.5891H243.641V39.5397Z" fill="#E0E0E0"/>
<path d="M131.026 39.5397L131.17 36.6694L133.608 36.0756V16.1821L130.739 15.8851V12.9159L138.582 11.7778L139.108 13.7077V14.3511C141.164 12.7675 143.938 11.7283 147.285 11.7283L148.433 12.7675L147.524 20.2894L143.22 20.141L142.79 16.1326C141.786 16.281 140.829 16.5779 140.016 17.1718V36.1251L142.742 36.7189L142.551 39.5891H131.026V39.5397Z" fill="#E0E0E0"/>
<path d="M66.5652 39.5397L66.7087 36.6694L69.1475 36.0756V16.1821L66.2783 15.8851V12.9159L74.1208 11.7778L74.6468 13.7077V14.3511C76.703 12.7675 79.4766 11.7283 82.7761 11.7283L83.9238 12.7675L83.1109 20.2894L78.8071 20.141L78.3767 16.1326C77.3725 16.281 76.4161 16.5779 75.6032 17.1718V36.1251L78.3289 36.7189L78.1376 39.5891H66.5652V39.5397Z" fill="#E0E0E0"/>
<path d="M91.3358 27.4155C91.3358 32.1662 93.3443 35.8281 97.3133 35.8281C99.3696 35.8281 100.995 35.3828 102.908 34.4425L104.008 37.0653C102.047 38.6984 99.1783 39.9355 95.5918 39.9355C88.6101 39.9355 84.5933 33.7002 84.5933 25.6834C84.5933 18.8543 87.5103 11.3818 95.4962 11.3818C102.478 11.3818 105.108 18.0625 105.108 25.4855L104.438 27.267L91.3358 27.4155ZM91.2402 24.2483L99.2739 23.8524C99.1305 20.5368 98.461 15.2913 95.3049 15.2913C94.5398 15.2913 94.0138 15.4397 93.0574 15.9346C91.7662 18.211 91.2402 22.3183 91.2402 24.2483Z" fill="#E0E0E0"/>
<path d="M202.469 27.4155C202.469 32.1662 204.477 35.8281 208.446 35.8281C210.502 35.8281 212.128 35.3828 214.041 34.4425L215.141 37.0653C213.18 38.6984 210.311 39.9355 206.725 39.9355C199.743 39.9355 195.726 33.7002 195.726 25.6834C195.726 18.8543 198.643 11.3818 206.629 11.3818C213.611 11.3818 216.241 18.0625 216.241 25.4855L215.571 27.267L202.469 27.4155ZM202.373 24.2483L210.407 23.8524C210.263 20.5368 209.594 15.2913 206.438 15.2913C205.673 15.2913 205.147 15.4397 204.19 15.9346C202.899 18.211 202.373 22.3183 202.373 24.2483Z" fill="#E0E0E0"/>
<path d="M155.797 27.4155C155.797 32.1662 157.805 35.8281 161.774 35.8281C163.83 35.8281 165.456 35.3828 167.369 34.4425L168.469 37.0653C166.508 38.6984 163.639 39.9355 160.053 39.9355C153.071 39.9355 149.054 33.7002 149.054 25.6834C149.054 18.8543 151.971 11.3818 159.957 11.3818C166.939 11.3818 169.569 18.0625 169.569 25.4855L168.899 27.267L155.797 27.4155ZM155.701 24.2483L163.735 23.8524C163.591 20.5368 162.922 15.2913 159.766 15.2913C159.001 15.2913 158.475 15.4397 157.518 15.9346C156.227 18.211 155.653 22.3183 155.701 24.2483Z" fill="#E0E0E0"/>
<path d="M234.316 39.5397L233.647 37.1644C231.878 38.8964 230.156 39.9356 227.478 39.9356C223.366 39.9356 219.684 37.8077 219.684 31.9188V15.4893L216.671 15.1924V12.5696L225.374 11.5304L226.044 13.9057V31.127C226.044 34.1457 227.239 35.7293 229.582 35.7293C230.252 35.7293 231.112 35.6303 231.878 35.3334C232.308 34.888 232.738 34.3437 233.073 33.7993V15.4893L229.965 15.1924V12.5696L238.764 11.5304L239.433 13.9057V36.0757L242.159 36.62L241.824 39.5397H234.316Z" fill="#E0E0E0"/>
<path d="M118.162 35.9767C116.776 35.9767 115.676 35.7292 114.815 35.2344V17.7657C115.198 17.1718 115.628 16.6275 116.058 16.1326C116.871 15.8357 117.589 15.7367 118.449 15.7367C122.036 15.7367 122.657 19.4977 122.657 26.2278C122.657 32.7106 121.701 34.4921 121.462 35.2344C120.458 35.7292 119.406 35.9767 118.162 35.9767ZM128.874 25.0402C128.874 16.677 126.483 11.4314 120.506 11.4314C116.537 11.4314 114.672 13.8067 113.906 14.7965V13.8562L113.237 11.4809L105.442 12.6191V15.4893L108.455 15.8852V49.6349L105.873 50.1793L105.729 53H117.254L117.445 50.1793L114.719 49.6349V38.9459C115.819 39.5892 117.349 39.9851 119.023 39.9851C128.778 39.9851 128.874 29.7414 128.874 25.0402Z" fill="#E0E0E0"/>
</g>
<defs>
<clipPath id="clip0_20_137">
<rect width="261" height="53" fill="white"/>
</clipPath>
</defs>
</svg>
