<svg width="156" height="40" viewBox="0 0 156 40" fill="none" xmlns="http://www.w3.org/2000/svg">
<g clip-path="url(#clip0_20_165)">
<path d="M15.6841 3.72707H19.0795C21.1473 3.42692 23.2591 3.69082 25.1854 4.4901C27.6021 5.92269 29.355 8.22902 30.0701 10.9171C30.5764 12.3258 30.5764 12.3258 31.7976 11.8269H32.7507V0.674982H0.791664V2.64123H2.10219C2.67169 2.63735 3.23484 2.75922 3.75027 2.99791C4.26569 3.2366 4.72029 3.58604 5.08067 4.02054C6.30185 5.95745 6.51034 8.12913 6.51034 19.4277C6.51034 31.4307 6.24228 34.3654 5.08067 35.8621C4.7939 36.2468 4.42263 36.5628 3.99456 36.7864C3.56649 37.01 3.09269 37.1354 2.60854 37.1533C0.791665 37.4762 0.791664 37.4468 0.791664 38.2392C0.69119 38.5041 0.69119 38.7959 0.791664 39.0609H20.956C21.0894 38.8017 21.1589 38.5151 21.1589 38.2245C21.1589 37.9339 21.0894 37.6473 20.956 37.3881C20.4676 37.2542 19.9698 37.1561 19.4667 37.0946C18.9225 37.0309 18.3845 36.9229 17.8583 36.7718C17.1048 36.2298 16.5079 35.5034 16.1266 34.6645C15.7453 33.8255 15.5927 32.9031 15.6841 31.9883C15.3862 30.0514 15.2373 26.5004 15.2373 23.5657V21.2472H16.4287C17.913 21.2025 19.3965 21.3605 20.8368 21.7168C21.5268 22.1369 22.1142 22.702 22.557 23.3716C22.9998 24.0413 23.2871 24.7989 23.3983 25.5906L23.6664 26.5004H25.4832V13.4996H23.8153L23.5472 14.7616C23.4345 15.5711 23.1305 16.3434 22.6597 17.0162C22.189 17.689 21.5646 18.2435 20.8368 18.6354C20.132 18.842 19.3894 18.8922 18.6625 18.7821H15.2373V15.6126C15.2373 12.3258 15.416 5.39985 15.5351 4.31401L15.6841 3.72707ZM155.077 26.9993C153.669 24.7666 151.473 23.1256 148.911 22.3918C146.948 21.7869 145.132 20.7877 143.58 19.4571C143.231 19.1242 142.969 18.7121 142.819 18.2569C142.668 17.8016 142.633 17.3169 142.716 16.8452C142.718 15.9198 143.093 15.0332 143.759 14.38C144.209 13.9148 144.78 13.5789 145.41 13.4083C146.039 13.2378 146.704 13.2389 147.333 13.4116C148.635 13.7772 149.812 14.4831 150.74 15.4544C151.669 16.4257 152.313 17.6262 152.605 18.9288C153.081 20.2495 153.141 20.2495 154.005 19.8973L154.541 19.6919V12.3844L154.154 12.2084C151.221 11.1936 148.111 10.7743 145.01 10.9758C142.339 11.0425 139.79 12.089 137.861 13.9105C136.987 14.7172 136.301 15.7026 135.854 16.7975C135.406 17.8925 135.207 19.0706 135.27 20.2495C135.287 22.0517 136.013 23.7772 137.295 25.0624C138.713 26.4358 140.452 27.4438 142.359 27.9971C146.975 29.7872 148.316 30.9318 148.316 33.0154C148.335 33.8941 148.051 34.7533 147.51 35.4519C146.969 36.1505 146.203 36.647 145.337 36.8599C144.297 37.085 143.22 37.085 142.18 36.8599C140.818 36.3391 139.603 35.5056 138.634 34.4286C137.665 33.3515 136.971 32.0621 136.61 30.6676L136.223 29.7285H135.687C135.431 29.7473 135.179 29.8068 134.942 29.9046H134.644V38.2392H135.151C137.163 38.8987 139.239 39.3511 141.346 39.5891H144.325C145.616 39.6825 146.915 39.5635 148.167 39.237C149.756 38.948 151.241 38.2542 152.475 37.2245C153.708 36.1948 154.646 34.8651 155.196 33.3676C155.551 32.5311 155.734 31.6331 155.732 30.7263C155.849 29.4488 155.623 28.1634 155.077 26.9993ZM127.02 11.8269C125.235 11.0885 123.312 10.7303 121.376 10.7759C119.441 10.8214 117.538 11.2696 115.791 12.091C114.149 12.8824 112.693 14.0043 111.518 15.3843C110.343 16.7643 109.475 18.3717 108.97 20.1027C108.326 21.991 108.053 23.9831 108.166 25.9721C108.144 27.0543 108.234 28.1359 108.434 29.2003C108.915 31.8175 110.197 34.2269 112.109 36.105C114.02 37.9831 116.469 39.2399 119.127 39.7065C120.857 39.9214 122.608 39.9214 124.339 39.7065C126.135 39.3947 127.853 38.7472 129.402 37.799C130.684 37.0913 131.768 36.0833 132.56 34.8643C132.509 34.673 132.419 34.4938 132.296 34.3375C132.174 34.1811 132.02 34.0509 131.845 33.9545C131.505 34.0758 131.184 34.2438 130.892 34.4534C129.41 35.4154 127.661 35.8976 125.888 35.8327C124.711 35.9111 123.531 35.7306 122.434 35.3042C121.337 34.8778 120.349 34.2163 119.544 33.3676C118.92 32.7971 118.406 32.1213 118.025 31.372C117.099 29.5476 116.6 27.5419 116.565 25.5026V24.358H133.066V23.7711C133.102 23.1847 133.102 22.5967 133.066 22.0103C133.06 19.9381 132.497 17.9044 131.435 16.1158C130.373 14.3272 128.85 12.8474 127.02 11.8269ZM118.71 21.9809H116.625V20.2495C117.31 15.818 119.007 13.1768 121.092 13.1768C123.177 13.1768 124.071 15.7887 124.458 20.5723V21.9222H122.671L118.71 21.9809ZM75.8791 10.8584C74.8499 10.8191 73.8268 11.0308 72.9006 11.4747C70.8876 12.4379 69.2616 14.04 68.284 16.0235L67.8968 16.7278V10.8584H67.7478C67.3904 10.8584 56.3701 13.0301 56.0126 13.1768C55.6552 13.3236 55.7744 13.3529 55.7744 13.8811C55.7744 14.4094 55.7744 14.4974 56.0126 14.5268L57.1743 14.7616C57.4996 14.7694 57.8188 14.8501 58.1078 14.9976C58.3968 15.145 58.6479 15.3554 58.8422 15.6126C59.5868 16.5811 59.7357 18.2832 59.7357 25.5319C59.8829 28.7952 59.7433 32.0649 59.3188 35.3045C59.2188 35.793 58.9674 36.2388 58.5993 36.5805C58.2312 36.9222 57.7645 37.1429 57.2636 37.212L56.2509 37.4175H55.8637V38.2392C55.7557 38.5129 55.7557 38.8165 55.8637 39.0902H72.5134V38.2392C72.5712 37.9583 72.5712 37.6689 72.5134 37.3881C71.511 37.3496 70.5141 37.2219 69.5349 37.0066C69.0017 36.7318 68.5655 36.3043 68.2837 35.7805C68.002 35.2566 67.8878 34.6609 67.9563 34.0719C67.7181 32.3698 67.5989 27.3808 67.6585 23.5657C67.7181 19.7505 67.6585 19.5158 67.9861 19.2517C68.9828 18.4987 70.2161 18.1144 71.4709 18.1658C72.6537 18.1912 73.8151 18.4823 74.8664 19.0169C75.2309 19.2163 75.6219 19.3645 76.028 19.4571C76.028 19.4571 79.0065 12.3551 79.0065 12.0323C78.6253 11.5959 78.1398 11.26 77.5937 11.055C77.0476 10.8501 76.4583 10.7825 75.8791 10.8584ZM55.8042 23.1842C55.7002 21.087 55.0891 19.0447 54.0219 17.2274C52.9546 15.4101 51.462 13.8704 49.6685 12.7366C47.5371 11.6037 45.1657 10.979 42.7449 10.9127C40.324 10.8465 37.9212 11.3405 35.7292 12.3551C32.6301 13.9653 30.2901 16.7025 29.2063 19.9853C28.0869 23.6608 28.0869 27.5791 29.2063 31.2546C29.7932 33.2633 30.89 35.0915 32.3933 36.5664C34.2656 38.3664 36.6797 39.5197 39.2736 39.8533C40.9386 39.9905 42.6124 39.9905 44.2774 39.8533C44.8902 39.7614 45.4968 39.634 46.0943 39.4718C48.5187 38.8035 50.6998 37.4689 52.3824 35.6239C54.065 33.7789 55.1796 31.4999 55.5957 29.0536C55.893 27.1114 55.963 25.142 55.8042 23.1842ZM43.4137 37.8577C40.4352 38.7381 38.2013 35.8914 37.4567 29.9046C37.1833 26.7703 37.1833 23.6186 37.4567 20.4842C38.0524 15.6713 39.5714 13.2355 41.9244 13.2355C42.3992 13.2065 42.874 13.29 43.3093 13.4789C43.7446 13.6678 44.1276 13.9567 44.4264 14.3214C46.4219 16.2876 47.4048 20.1908 47.4048 26.0602C47.6527 29.3819 47.1228 32.7154 45.856 35.8034C45.2967 36.704 44.4313 37.3799 43.4137 37.7109V37.8577ZM97.0263 11.4453C96.1859 11.3388 95.335 11.3388 94.4946 11.4453C92.8813 11.444 91.2866 11.7843 89.8184 12.4431L88.895 12.8247V6.45635C89.0564 4.30717 89.0564 2.14918 88.895 0C88.5376 0 77.1598 2.14233 76.9811 2.23037C76.8933 2.44704 76.8933 2.68869 76.9811 2.90536C76.9811 3.52164 76.9811 3.4923 78.3214 3.78577C78.6978 3.86892 79.0592 4.00743 79.3937 4.19662C79.9751 4.73532 80.362 5.44633 80.4957 6.22157C80.8349 8.45495 80.9446 10.7163 80.8234 12.9714V38.7381L81.6276 38.9142C82.8189 39.1783 86.1846 39.7359 87.2867 39.8533C89.4873 40.0257 91.6983 40.0257 93.8989 39.8533C96.3415 39.6074 98.6696 38.7096 100.633 37.2564C102.596 35.8032 104.119 33.8499 105.038 31.6067C105.587 30.1671 105.966 28.6705 106.17 27.146C106.348 25.081 106.278 23.0026 105.962 20.9538C105.642 18.6571 104.613 16.5129 103.015 14.812C101.417 13.111 99.3258 11.9357 97.0263 11.4453ZM89.2227 37.3588C89.2227 36.9773 88.9248 24.1233 88.9844 18.9875V14.967L89.8482 14.7616C90.4309 14.6793 91.0227 14.6793 91.6055 14.7616C92.25 14.697 92.8983 14.8412 93.4521 15.1724C94.5644 15.9288 95.4881 16.9239 96.1536 18.0829C96.8191 19.2419 97.2092 20.5345 97.2943 21.8635C97.5113 24.0005 97.5113 26.1535 97.2943 28.2905C97.1161 31.3965 95.9015 34.3574 93.8393 36.7131C93.254 37.2609 92.519 37.6281 91.7246 37.7696C91.1235 37.8726 90.5088 37.8726 89.9077 37.7696C89.3418 37.7696 89.3418 37.5935 89.3418 37.3588H89.2227Z" fill="#E0E0E0"/>
</g>
<defs>
<clipPath id="clip0_20_165">
<rect width="155" height="40" fill="white" transform="translate(0.761719)"/>
</clipPath>
</defs>
</svg>
