<svg width="148" height="28" viewBox="0 0 148 28" fill="none" xmlns="http://www.w3.org/2000/svg">
<path d="M13.4545 0.54541L16.4753 9.84227H26.2506L18.3422 15.588L21.3629 24.8849L13.4545 19.1391L5.54616 24.8849L8.5669 15.588L0.658512 9.84227H10.4338L13.4545 0.54541Z" fill="#FFC700"/>
<path d="M43.7275 0.54541L46.7482 9.84227H56.5235L48.6151 15.588L51.6359 24.8849L43.7275 19.1391L35.8191 24.8849L38.8398 15.588L30.9315 9.84227H40.7068L43.7275 0.54541Z" fill="#FFC700"/>
<path d="M74 0.54541L77.0207 9.84227H86.796L78.8876 15.588L81.9083 24.8849L74 19.1391L66.0916 24.8849L69.1123 15.588L61.2039 9.84227H70.9792L74 0.54541Z" fill="#FFC700"/>
<path d="M104.273 0.54541L107.294 9.84227H117.069L109.161 15.588L112.181 24.8849L104.273 19.1391L96.3645 24.8849L99.3853 15.588L91.4769 9.84227H101.252L104.273 0.54541Z" fill="#FFC700"/>
<path d="M134.545 0.54541L137.566 9.84227H147.341L139.433 15.588L142.454 24.8849L134.545 19.1391L126.637 24.8849L129.658 15.588L121.749 9.84227H131.525L134.545 0.54541Z" fill="#FFC700"/>
</svg>
