<svg width="286" height="35" viewBox="0 0 286 35" fill="none" xmlns="http://www.w3.org/2000/svg">
<path d="M36.9456 33.3489H47.3824L52.9778 1.32422H42.541L40.4774 12.7928H31.4296L33.4931 1.32422H23.0563L17.4609 33.3489H27.8977L30.001 21.3645H39.0488L36.9456 33.3489Z" fill="#E0E0E0"/>
<path d="M58.8904 1.28455L55.7157 19.1025C55.4379 20.4914 55.3188 21.8407 55.3188 23.1105C55.3188 32.5553 63.573 33.9839 68.5335 33.9839C78.9306 33.9839 83.4149 30.5314 85.0419 21.2057L88.5341 1.24487H78.0973L75.121 17.9914C74.1686 23.2296 73.494 25.9678 69.605 25.9678C67.0652 25.9678 65.835 24.6185 65.835 21.8407C65.835 20.7692 65.9937 19.4597 66.3112 17.8326L69.3272 1.24487H58.8904V1.28455Z" fill="#E0E0E0"/>
<path d="M143.695 33.3489H154.132L155.6 25.0947H160.521C169.608 25.0947 174.648 20.174 174.648 11.2055C174.648 4.89576 170.283 1.28455 162.624 1.28455H149.29L143.695 33.3489ZM159.965 17.1977H156.949L158.338 9.6578H161.156C163.457 9.6578 164.687 10.8086 164.687 12.9119C164.687 15.5707 162.902 17.1977 159.965 17.1977Z" fill="#E0E0E0"/>
<path d="M194.926 0.609985C183.577 0.609985 176.791 7.95146 176.791 20.2931C176.791 28.8647 182.188 34.0236 191.236 34.0236C202.585 34.0236 209.371 26.6821 209.371 14.3405C209.411 5.72918 204.014 0.609985 194.926 0.609985ZM191.871 25.7297C189.172 25.7297 187.585 23.7852 187.585 20.5312C187.585 19.301 187.704 18.2295 187.942 16.9993C188.736 12.7929 190.085 8.94355 194.331 8.94355C197.03 8.94355 198.617 10.888 198.617 14.1421C198.617 15.3723 198.498 16.4438 198.26 17.6739C197.466 21.8407 196.117 25.7297 191.871 25.7297Z" fill="#E0E0E0"/>
<path d="M245.681 33.3489H256.118L260.245 9.89589H268.103L269.611 1.32422H242.903L241.396 9.89589H249.729L245.681 33.3489Z" fill="#E0E0E0"/>
<path d="M228.379 13.15C225.086 12.1182 223.736 11.6817 223.736 10.1341C223.736 9.10228 224.411 7.87209 226.395 7.87209C227.864 7.87209 229.094 8.70545 229.57 9.93564L238.777 7.43556C237.705 2.91163 233.816 0.609985 227.11 0.609985C214.49 0.609985 213.498 9.06259 213.498 11.642C213.498 16.8803 216.276 20.0946 222.308 21.7614C223.895 22.1979 225.721 22.6741 225.721 24.4202C225.721 25.8091 224.689 26.6821 222.903 26.6821C221.276 26.6821 219.53 25.7297 218.935 24.063L209.847 26.5234C210.839 31.2854 215.324 33.9839 222.348 33.9839C227.705 33.9839 236.673 32.5553 236.673 22.8725C236.713 18.0311 233.975 14.8564 228.379 13.15Z" fill="#E0E0E0"/>
<path d="M11.6273 33.3489L17.2624 1.32422H0V33.3489H11.6273Z" fill="#E0E0E0"/>
<path d="M274.095 1.32422L268.5 33.3489H285.762V1.32422H274.095Z" fill="#E0E0E0"/>
<path d="M100.995 23.9042H109.765L111.194 15.8484H102.424L103.416 9.89589H115.678L117.186 1.28455H94.487L88.8916 33.3489H99.3284L100.995 23.9042Z" fill="#E0E0E0"/>
<path d="M128.337 23.9042H137.147L138.576 15.8484H129.806L130.798 9.89589H143.06L144.568 1.28455H121.869L116.273 33.3489H126.71L128.337 23.9042Z" fill="#E0E0E0"/>
</svg>
