<svg width="133" height="170" viewBox="0 0 133 170" fill="none" xmlns="http://www.w3.org/2000/svg">
<path d="M42.8966 59.373H20.6738V50.577L42.2232 19.7909H53.3346V50.577H61.0789V59.373H53.3346V70.1989H42.8966V59.373ZM42.8966 50.577V32.6467L30.8424 50.577H42.8966ZM68.1571 70.1989C66.5858 70.1989 65.2614 69.6576 64.1839 68.575C63.1065 67.4924 62.5677 66.1618 62.5677 64.583C62.5677 63.0042 63.1065 61.6961 64.1839 60.6586C65.2614 59.576 66.5858 59.0347 68.1571 59.0347C69.7284 59.0347 71.0304 59.576 72.0629 60.6586C73.1404 61.6961 73.6791 63.0042 73.6791 64.583C73.6791 66.2069 73.1629 67.5601 72.1303 68.6427C71.0977 69.6802 69.7733 70.1989 68.1571 70.1989ZM92.3465 52.1332H91.5384C88.4853 52.1332 85.747 51.434 83.3227 50.0357C80.8984 48.6374 78.9904 46.7203 77.5987 44.2845C76.2518 41.8487 75.5784 39.1422 75.5784 36.1651C75.5784 32.8722 76.3417 29.9402 77.868 27.3691C79.3944 24.7528 81.5045 22.7004 84.1982 21.2118C86.9364 19.7233 90.0123 18.979 93.424 18.979C96.8357 18.979 99.8888 19.7007 102.582 21.1442C105.321 22.5877 107.454 24.5949 108.98 27.1661C110.506 29.6921 111.27 32.5339 111.27 35.6914C111.27 38.3528 110.821 40.9014 109.923 43.3372C109.07 45.773 107.319 48.7051 104.67 52.1332L90.7303 70.1989H78.2721L92.3465 52.1332ZM86.0164 36.0297C86.0164 38.24 86.7125 40.0444 88.104 41.4427C89.5409 42.841 91.3137 43.5402 93.424 43.5402C95.5343 43.5402 97.2852 42.841 98.6766 41.4427C100.114 40.0444 100.832 38.24 100.832 36.0297C100.832 33.8195 100.114 32.0151 98.6766 30.6168C97.2852 29.1733 95.5343 28.4516 93.424 28.4516C91.3137 28.4516 89.5409 29.1733 88.104 30.6168C86.7125 32.0151 86.0164 33.8195 86.0164 36.0297Z" fill="#232121"/>
<path d="M0 150.857H12.1874H19.5885V143.488L0 150.857Z" fill="#232121"/>
<path d="M19.5889 143.487V169.537L28.8513 140.015L19.5889 143.487Z" fill="#232121"/>
<path d="M19.5886 150.857H12.1875L19.5886 169.514V150.857Z" fill="#232121"/>
<path d="M0 150.857L14.0931 155.644L12.1874 150.857H0Z" fill="#232121"/>
<path d="M44.8941 162.658C44.7833 162.769 44.606 162.902 44.3623 163.058C44.1185 163.214 43.7862 163.392 43.3872 163.548C42.9884 163.704 42.5009 163.86 41.9026 163.971C41.3265 164.082 40.6618 164.149 39.9083 164.149C38.468 164.149 37.2049 163.904 36.1413 163.459C35.0777 162.991 34.2134 162.346 33.5266 161.5C32.8396 160.653 32.3299 159.674 32.0197 158.539C31.6873 157.403 31.5322 156.134 31.5322 154.776C31.5322 153.418 31.7095 152.149 32.0641 150.991C32.4185 149.833 32.9282 148.831 33.6373 147.985C34.3242 147.14 35.2106 146.471 36.252 146.004C37.2936 145.536 38.5344 145.292 39.9526 145.292C40.6395 145.292 41.2821 145.358 41.8361 145.469C42.3902 145.603 42.8998 145.736 43.3208 145.915C43.7418 146.092 44.0963 146.271 44.3623 146.449C44.6503 146.627 44.8497 146.805 44.9827 146.916C45.1379 147.05 45.2929 147.228 45.4037 147.429C45.5146 147.629 45.581 147.852 45.581 148.074C45.581 148.43 45.4481 148.787 45.1822 149.143C44.9162 149.499 44.6282 149.833 44.2958 150.145C44.0742 149.922 43.8304 149.7 43.5645 149.477C43.2986 149.254 42.9884 149.053 42.656 148.876C42.3237 148.697 41.947 148.564 41.5259 148.453C41.1049 148.341 40.6395 148.275 40.1078 148.275C39.1993 148.275 38.4236 148.453 37.8032 148.831C37.1828 149.21 36.6952 149.678 36.3185 150.278C35.9419 150.88 35.6759 151.548 35.5208 152.305C35.3657 153.062 35.2771 153.841 35.2771 154.642C35.2771 155.488 35.3657 156.29 35.5208 157.069C35.6759 157.849 35.964 158.516 36.3629 159.117C36.7617 159.719 37.2714 160.186 37.914 160.542C38.5566 160.899 39.3322 161.077 40.285 161.077C40.7947 161.077 41.2379 161.01 41.6589 160.899C42.0799 160.765 42.4566 160.609 42.7669 160.431C43.0992 160.253 43.3651 160.053 43.6089 159.874C43.8527 159.674 44.0521 159.496 44.2071 159.363C44.318 159.496 44.4288 159.652 44.5839 159.829C44.739 160.008 44.872 160.208 44.9827 160.386C45.1157 160.586 45.2043 160.787 45.3152 160.987C45.4037 161.188 45.4481 161.366 45.4481 161.522C45.4481 161.767 45.4037 161.945 45.3152 162.123C45.2265 162.279 45.0714 162.457 44.8941 162.658ZM58.7213 160.586C58.7213 162.012 58.9207 163.058 59.3418 163.704C59.0094 163.838 58.7213 163.926 58.4332 163.971C58.1452 164.015 57.8571 164.06 57.5469 164.06C56.9042 164.06 56.4168 163.926 56.0844 163.681C55.752 163.437 55.5304 163.058 55.4418 162.591C55.0429 163.014 54.5332 163.37 53.8685 163.659C53.2259 163.948 52.4281 164.082 51.4975 164.082C51.01 164.082 50.5224 164.015 50.035 163.882C49.5475 163.748 49.1043 163.525 48.7055 163.214C48.3066 162.902 47.9964 162.501 47.7304 161.99C47.4867 161.477 47.3538 160.854 47.3538 160.12C47.3538 159.206 47.5753 158.449 48.0185 157.871C48.4617 157.291 49.0157 156.846 49.6804 156.512C50.3452 156.178 51.0765 155.956 51.8299 155.822C52.6054 155.689 53.3145 155.622 53.9571 155.577C54.1787 155.555 54.3782 155.555 54.5997 155.555H55.1758V155.065C55.1758 154.375 54.9986 153.885 54.6219 153.573C54.2452 153.284 53.6469 153.128 52.827 153.128C52.0514 153.128 51.3645 153.262 50.7662 153.506C50.168 153.752 49.5696 154.041 48.9935 154.375C48.7498 154.063 48.5282 153.73 48.3952 153.351C48.2401 152.973 48.1736 152.706 48.1736 152.527C48.1736 152.282 48.3066 152.037 48.5946 151.792C48.8827 151.548 49.2594 151.347 49.7469 151.147C50.2344 150.946 50.7884 150.813 51.431 150.679C52.0514 150.567 52.7162 150.501 53.4253 150.501C54.4003 150.501 55.2202 150.59 55.8849 150.791C56.5497 150.991 57.1037 151.302 57.5247 151.703C57.9458 152.126 58.256 152.639 58.4332 153.262C58.6105 153.885 58.6992 154.62 58.6992 155.444L58.7213 160.586ZM55.2645 157.448H54.8878C54.7549 157.448 54.6441 157.448 54.5111 157.47C54.0679 157.515 53.6247 157.559 53.1816 157.625C52.7384 157.692 52.3395 157.826 52.0072 158.004C51.6747 158.182 51.3867 158.427 51.1651 158.716C50.9435 159.006 50.8327 159.385 50.8327 159.829C50.8327 160.342 50.9656 160.765 51.2537 161.121C51.5418 161.477 52.0293 161.655 52.7162 161.655C53.0486 161.655 53.381 161.611 53.6912 161.522C54.0015 161.433 54.2673 161.321 54.5111 161.166C54.7549 161.01 54.9321 160.854 55.0651 160.698C55.1981 160.52 55.2645 160.364 55.2645 160.23V157.448ZM65.4355 152.104C65.7236 151.77 66.1668 151.414 66.7872 151.058C67.4076 150.701 68.161 150.523 69.0918 150.523C69.7565 150.523 70.3991 150.634 70.9974 150.858C71.5957 151.08 72.1275 151.458 72.5929 151.949C73.0582 152.46 73.4349 153.128 73.7008 153.952C73.9889 154.776 74.1219 155.8 74.1219 157.025C74.1219 158.427 73.9667 159.607 73.6343 160.52C73.302 161.433 72.9031 162.167 72.3934 162.68C71.8838 163.214 71.3076 163.592 70.6872 163.815C70.0667 164.038 69.4241 164.149 68.8036 164.149C68.294 164.149 67.8287 164.082 67.452 163.971C67.0753 163.86 66.7429 163.726 66.477 163.57C66.2111 163.437 66.0116 163.281 65.8565 163.147C65.7236 163.014 65.6128 162.902 65.5906 162.857V169.537H61.9122V150.924C62.0008 150.902 62.1116 150.88 62.2446 150.88C62.3554 150.858 62.4883 150.858 62.6213 150.835C62.7765 150.835 62.9315 150.813 63.1309 150.813C63.7293 150.813 64.2389 150.902 64.6599 151.102C65.0588 151.302 65.3247 151.636 65.4355 152.104ZM70.3105 157.114C70.3105 156.579 70.2662 156.067 70.1776 155.6C70.0889 155.132 69.9338 154.731 69.7344 154.375C69.535 154.041 69.2468 153.774 68.8923 153.573C68.5378 153.373 68.1167 153.284 67.607 153.284C66.8537 153.284 66.3218 153.44 66.0338 153.707C65.7457 153.996 65.5906 154.308 65.5906 154.664V160.431C65.7236 160.586 65.9895 160.743 66.3662 160.943C66.7429 161.144 67.1639 161.233 67.6514 161.233C68.5599 161.233 69.2247 160.877 69.6679 160.142C70.0889 159.429 70.3105 158.427 70.3105 157.114ZM76.9582 161.789C76.8252 161.433 76.7588 161.054 76.7144 160.653C76.6702 160.253 76.6702 159.852 76.6702 159.451V146.872C76.8031 146.849 76.936 146.827 77.069 146.827C77.2019 146.805 77.3349 146.805 77.4678 146.783C77.6008 146.783 77.7559 146.761 77.8889 146.761C78.1769 146.761 78.465 146.783 78.753 146.849C79.0411 146.894 79.307 147.006 79.5286 147.183C79.7723 147.339 79.9496 147.562 80.1048 147.852C80.2378 148.141 80.3264 148.497 80.3264 148.943V150.88H84.1155V153.618H80.3485V159.407C80.3485 160.676 80.8581 161.299 81.8775 161.299C82.1212 161.299 82.365 161.255 82.5865 161.188C82.8082 161.099 83.0076 161.01 83.1849 160.921C83.3622 160.832 83.5172 160.72 83.6502 160.609C83.7831 160.498 83.8718 160.409 83.9383 160.364C84.204 160.765 84.4254 161.099 84.5584 161.388C84.6914 161.677 84.7806 161.945 84.7806 162.212C84.7806 162.457 84.6914 162.68 84.4919 162.902C84.2924 163.125 84.0269 163.348 83.6945 163.525C83.3622 163.726 82.9411 163.882 82.4536 163.993C81.9661 164.105 81.4343 164.172 80.8581 164.172C79.7502 164.172 78.8639 163.948 78.2434 163.525C77.6672 163.058 77.2241 162.501 76.9582 161.789ZM93.4223 161.433C93.8659 161.433 94.264 161.388 94.6193 161.277C94.9509 161.188 95.2615 161.054 95.5494 160.921C95.8154 160.787 96.0595 160.609 96.259 160.453C96.4577 160.275 96.6353 160.12 96.7902 159.986C97.0124 160.253 97.2338 160.609 97.4771 161.032C97.7212 161.455 97.8323 161.811 97.8323 162.078C97.8323 162.479 97.6101 162.835 97.1673 163.169C96.7902 163.459 96.259 163.704 95.5494 163.926C94.8625 164.127 94.0426 164.238 93.1125 164.238C92.2699 164.238 91.4281 164.127 90.6082 163.904C89.7883 163.681 89.0568 163.303 88.4146 162.769C87.7714 162.234 87.2622 161.5 86.8632 160.586C86.4642 159.674 86.2647 158.516 86.2647 157.136C86.2647 156.001 86.4423 155.02 86.7967 154.197C87.1511 153.373 87.6166 152.683 88.1932 152.149C88.769 151.614 89.4339 151.214 90.1873 150.946C90.918 150.701 91.6714 150.567 92.4475 150.567C93.4441 150.567 94.3086 150.724 95.0174 151.035C95.727 151.347 96.2809 151.77 96.7237 152.305C97.1673 152.839 97.4771 153.44 97.6766 154.13C97.8761 154.82 97.9653 155.533 97.9653 156.29V156.668C97.9653 156.824 97.9653 156.958 97.9426 157.136C97.9426 157.291 97.9207 157.448 97.9207 157.603C97.9207 157.759 97.8988 157.871 97.8761 157.959H89.9213C89.9878 158.962 90.2976 159.785 90.8515 160.453C91.3835 161.099 92.248 161.433 93.4223 161.433ZM94.663 155.934C94.663 155.065 94.4863 154.353 94.1538 153.819C93.8213 153.284 93.2228 152.995 92.3591 152.995C91.6049 152.995 91.0291 153.262 90.5863 153.774C90.1427 154.286 89.9213 154.998 89.9213 155.934H94.663ZM104.369 152.171C104.48 152.015 104.613 151.837 104.79 151.636C104.967 151.436 105.189 151.258 105.455 151.102C105.721 150.946 106.008 150.813 106.319 150.701C106.629 150.59 106.961 150.545 107.338 150.545C107.56 150.545 107.781 150.567 108.025 150.59C108.269 150.634 108.491 150.701 108.689 150.791C108.889 150.88 109.067 151.013 109.2 151.192C109.333 151.369 109.399 151.57 109.399 151.815C109.399 152.215 109.311 152.661 109.111 153.172C108.912 153.685 108.712 154.13 108.513 154.487C108.202 154.241 107.892 154.041 107.604 153.907C107.294 153.774 106.939 153.707 106.519 153.707C105.965 153.707 105.499 153.863 105.122 154.197C104.746 154.531 104.546 154.91 104.546 155.377V164.149H100.868V150.902C100.956 150.88 101.067 150.858 101.2 150.858C101.311 150.835 101.444 150.835 101.576 150.813C101.71 150.813 101.887 150.791 102.087 150.791C102.662 150.791 103.173 150.902 103.593 151.125C103.992 151.369 104.258 151.703 104.369 152.171ZM114.806 152.171C114.917 152.015 115.05 151.837 115.227 151.636C115.404 151.436 115.626 151.258 115.892 151.102C116.158 150.946 116.446 150.813 116.756 150.701C117.066 150.59 117.398 150.545 117.775 150.545C117.997 150.545 118.218 150.567 118.462 150.59C118.706 150.634 118.927 150.701 119.127 150.791C119.326 150.88 119.504 151.013 119.637 151.192C119.77 151.369 119.836 151.57 119.836 151.815C119.836 152.215 119.747 152.661 119.547 153.172C119.348 153.685 119.149 154.13 118.95 154.487C118.639 154.241 118.329 154.041 118.041 153.907C117.731 153.774 117.377 153.707 116.955 153.707C116.401 153.707 115.936 153.863 115.559 154.197C115.182 154.531 114.983 154.91 114.983 155.377V164.149H111.305V150.902C111.393 150.88 111.504 150.858 111.637 150.858C111.748 150.835 111.881 150.835 112.014 150.813C112.147 150.813 112.324 150.791 112.524 150.791C113.1 150.791 113.609 150.902 114.031 151.125C114.429 151.369 114.695 151.703 114.806 152.171ZM132.333 160.586C132.333 162.012 132.533 163.058 132.954 163.704C132.622 163.838 132.333 163.926 132.045 163.971C131.757 164.015 131.47 164.06 131.159 164.06C130.517 164.06 130.029 163.926 129.697 163.681C129.364 163.437 129.143 163.058 129.054 162.591C128.655 163.014 128.145 163.37 127.48 163.659C126.838 163.948 126.04 164.082 125.11 164.082C124.623 164.082 124.134 164.015 123.647 163.882C123.16 163.748 122.717 163.525 122.318 163.214C121.919 162.902 121.609 162.501 121.343 161.99C121.099 161.477 120.966 160.854 120.966 160.12C120.966 159.206 121.187 158.449 121.631 157.871C122.074 157.291 122.628 156.846 123.293 156.512C123.958 156.178 124.689 155.956 125.442 155.822C126.218 155.689 126.926 155.622 127.57 155.577C127.791 155.555 127.99 155.555 128.212 155.555H128.788V155.065C128.788 154.375 128.611 153.885 128.234 153.573C127.857 153.284 127.259 153.128 126.439 153.128C125.664 153.128 124.977 153.262 124.378 153.506C123.78 153.752 123.182 154.041 122.606 154.375C122.362 154.063 122.14 153.73 122.007 153.351C121.852 152.973 121.786 152.706 121.786 152.527C121.786 152.282 121.919 152.037 122.207 151.792C122.495 151.548 122.872 151.347 123.359 151.147C123.846 150.946 124.4 150.813 125.043 150.679C125.664 150.567 126.329 150.501 127.038 150.501C128.012 150.501 128.832 150.59 129.497 150.791C130.162 150.991 130.716 151.302 131.137 151.703C131.558 152.126 131.869 152.639 132.045 153.262C132.223 153.885 132.311 154.62 132.311 155.444L132.333 160.586ZM128.877 157.448H128.5C128.367 157.448 128.256 157.448 128.123 157.47C127.68 157.515 127.237 157.559 126.793 157.625C126.351 157.692 125.952 157.826 125.619 158.004C125.287 158.182 124.999 158.427 124.777 158.716C124.556 159.006 124.445 159.385 124.445 159.829C124.445 160.342 124.578 160.765 124.866 161.121C125.154 161.477 125.642 161.655 126.329 161.655C126.66 161.655 126.993 161.611 127.304 161.522C127.613 161.433 127.879 161.321 128.123 161.166C128.367 161.01 128.544 160.854 128.677 160.698C128.81 160.52 128.877 160.364 128.877 160.23V157.448Z" fill="#232121"/>
<path d="M17.2181 93.0347L19.7609 100.898H27.9895L21.3324 105.758L23.8752 113.621L17.2181 108.761L10.5611 113.621L13.1038 105.758L6.44678 100.898H14.6753L17.2181 93.0347Z" fill="#232121"/>
<path d="M42.701 93.0347L45.2437 100.898H53.4723L46.8153 105.758L49.3581 113.621L42.701 108.761L36.0439 113.621L38.5867 105.758L31.9297 100.898H40.1583L42.701 93.0347Z" fill="#232121"/>
<path d="M68.1835 93.0347L70.7262 100.898H78.9548L72.2978 105.758L74.8405 113.621L68.1835 108.761L61.5264 113.621L64.0692 105.758L57.4121 100.898H65.6407L68.1835 93.0347Z" fill="#232121"/>
<path d="M93.6664 93.0347L96.2094 100.898H104.438L97.781 105.758L100.323 113.621L93.6664 108.761L87.0097 113.621L89.5518 105.758L82.895 100.898H91.1234L93.6664 93.0347Z" fill="#232121"/>
<path d="M119.149 93.0347L121.692 100.898H129.92L123.263 105.758L125.806 113.621L119.149 108.761L112.492 113.621L115.035 105.758L108.377 100.898H116.607L119.149 93.0347Z" fill="#232121"/>
</svg>
