<svg width="18" height="18" viewBox="0 0 18 18" fill="none" xmlns="http://www.w3.org/2000/svg">
<g clip-path="url(#clip0_20_336)">
<path d="M16.2775 2.97814C16.121 2.67611 15.8604 2.44105 15.5438 2.3165C13.4345 1.49842 11.3602 0.717596 9.33805 0.0513847C9.13267 -0.0171282 8.91061 -0.0171282 8.70523 0.0513847C6.6834 0.715838 4.60953 1.49525 2.50051 2.31228C2.22255 2.42283 1.98708 2.61914 1.82832 2.87267C1.83992 2.87443 1.39449 4.26486 1.31891 7.33752C1.27215 10.4063 1.65465 11.327 1.64199 11.3281C1.84871 12.0028 2.23613 12.6897 2.7916 13.3879C3.41211 14.1677 4.25059 14.9731 5.26309 15.7652C6.94004 17.0811 8.50906 17.8675 8.5748 17.8953C8.71424 17.9644 8.86776 18.0004 9.0234 18.0004C9.17903 18.0004 9.33256 17.9644 9.47199 17.8953C9.53809 17.8675 11.1089 17.0786 12.7848 15.7631C13.7976 14.9706 14.6364 14.1652 15.2573 13.3858C15.8521 12.638 16.2543 11.9043 16.4487 11.1836C16.441 11.1836 16.7223 10.0547 16.6832 7.47006C16.6337 4.88678 16.2737 2.97955 16.2775 2.97814Z" fill="#2AD352"/>
<path d="M9.0234 0.000244191C8.91588 0.000210252 8.80906 0.017421 8.70699 0.0512208C6.68516 0.715674 4.61129 1.49509 2.50227 2.31212C2.2236 2.42244 1.98748 2.61891 1.82832 2.87286C1.83992 2.87462 1.39449 4.26505 1.31891 7.33771C1.27215 10.4065 1.65465 11.3272 1.64199 11.3283C1.84871 12.0029 2.23613 12.6899 2.7916 13.3881C2.95285 13.5908 3.12863 13.7953 3.31895 14.0016C3.61637 14.0285 3.91742 14.0422 4.22211 14.0427C9.6323 14.0427 14.0184 9.65661 14.0184 4.24642C14.0191 3.34917 13.8967 2.45608 13.6545 1.59212C12.1941 1.04017 10.7534 0.517744 9.3384 0.0515723C9.23679 0.0178364 9.13046 0.00050971 9.0234 0.000244191Z" fill="#74DA7F"/>
<path d="M13.4299 7.25313C11.9418 8.78559 10.4121 10.3901 8.91305 11.9739C8.79137 12.1031 8.64454 12.206 8.4816 12.2763C8.31866 12.3466 8.14305 12.3829 7.96559 12.3828H7.95961C7.78199 12.3808 7.60656 12.3433 7.44357 12.2727C7.28059 12.2021 7.13332 12.0997 7.01039 11.9714C6.20778 11.1407 5.39954 10.3117 4.59657 9.49856C4.08293 8.97965 4.09875 8.16262 4.62961 7.65532C5.16047 7.14801 5.99719 7.1452 6.50485 7.66621C6.98204 8.15489 7.46098 8.64707 7.94168 9.14278C9.13278 7.89332 10.3284 6.63403 11.4925 5.41059C11.9871 4.88993 12.814 4.89625 13.3522 5.41059C13.8905 5.92493 13.9284 6.7395 13.4299 7.25313Z" fill="white"/>
</g>
<defs>
<clipPath id="clip0_20_336">
<rect width="18" height="18" fill="white"/>
</clipPath>
</defs>
</svg>
