<svg width="286" height="51" viewBox="0 0 286 51" fill="none" xmlns="http://www.w3.org/2000/svg">
<g clip-path="url(#clip0_20_115)">
<path d="M20.2366 11.7844C22.9916 9.60578 26.3641 8.46694 29.8316 8.51645V-0.0495683C24.6541 -0.148597 19.5716 1.58442 15.3916 4.85238L20.2366 11.7844Z" fill="#E0E0E0"/>
<path d="M20.2369 11.7845L15.3919 4.85242C11.1644 7.97183 8.02941 12.4777 6.46191 17.6272L14.2994 20.301C15.3444 16.8349 17.4344 13.8641 20.2369 11.7845Z" fill="#E0E0E0"/>
<path d="M14.3468 30.7981L6.50928 33.4719C8.02928 38.6709 11.1643 43.1272 15.4393 46.2466L20.2843 39.3146C17.4343 37.1855 15.3443 34.2146 14.3468 30.7981Z" fill="#E0E0E0"/>
<path d="M20.2366 39.265L15.3916 46.1971C19.5716 49.465 24.6066 51.1485 29.8316 51.099V42.533C26.4116 42.5825 23.0391 41.4437 20.2366 39.265Z" fill="#E0E0E0"/>
<path d="M39.427 39.265C36.672 41.4437 33.2995 42.5825 29.832 42.533V51.099C35.0095 51.198 40.092 49.465 44.272 46.1971L39.427 39.265Z" fill="#E0E0E0"/>
<path d="M45.3643 30.7981C44.3193 34.2146 42.2768 37.235 39.4268 39.3146L44.2718 46.2466C48.4993 43.1272 51.6343 38.6214 53.2018 33.4719L45.3643 30.7981Z" fill="#E0E0E0"/>
<path d="M53.2018 17.6272L45.3643 20.301C46.4568 23.7175 46.4568 27.3816 45.3643 30.7981L53.2018 33.4719C54.8643 28.3223 54.8643 22.7272 53.2018 17.6272Z" fill="#E0E0E0"/>
<path d="M45.3643 20.2514L53.2018 17.5776C51.6818 12.4281 48.5468 7.92227 44.2718 4.80286L39.4268 11.7349C42.2293 13.864 44.3193 16.8349 45.3643 20.2514Z" fill="#E0E0E0"/>
<path d="M39.427 11.7845L44.272 4.85244C40.092 1.63399 35.057 -0.0990193 29.832 -0.0495048V8.51652C33.2995 8.467 36.672 9.60584 39.427 11.7845Z" fill="#E0E0E0"/>
<path d="M24.8442 32.7291L20.2842 39.3146C23.0392 41.4932 26.4117 42.632 29.8792 42.5825V34.4621C28.0267 34.4126 26.2692 33.8184 24.8442 32.7291Z" fill="#E0E0E0"/>
<path d="M21.7567 28.2728L14.3467 30.7981C15.3442 34.2146 17.4342 37.235 20.2842 39.3146L24.8442 32.7291C23.3717 31.5903 22.2792 30.0554 21.7567 28.2728Z" fill="#E0E0E0"/>
<path d="M24.8442 18.3204L20.2842 11.735C17.4817 13.8146 15.3917 16.7855 14.3467 20.2515L21.7567 22.7767C22.2792 20.9942 23.3717 19.4593 24.8442 18.3204Z" fill="#E0E0E0"/>
<path d="M29.8318 16.6368V8.51644C26.3643 8.46693 22.9918 9.60576 20.2368 11.7844L24.7968 18.3698C26.2693 17.231 28.0268 16.6368 29.8318 16.6368Z" fill="#E0E0E0"/>
<path d="M34.867 18.3204L39.427 11.735C36.672 9.55632 33.2995 8.41749 29.832 8.467V16.5874C31.637 16.6369 33.3945 17.2311 34.867 18.3204Z" fill="#E0E0E0"/>
<path d="M39.4267 11.7845L34.8667 18.37C36.3392 19.4593 37.3842 21.0438 37.9542 22.8263L45.3642 20.301C44.3192 16.835 42.2292 13.8642 39.4267 11.7845Z" fill="#E0E0E0"/>
<path d="M38.3816 25.5496C38.3816 26.4903 38.2391 27.4311 37.9541 28.2729L45.3641 30.7981C46.4566 27.3816 46.4566 23.7175 45.3641 20.301L37.9541 22.8263C38.2391 23.668 38.3816 24.6088 38.3816 25.5496Z" fill="#E0E0E0"/>
<path d="M34.8667 32.7291L39.4267 39.3146C42.2292 37.235 44.3192 34.2641 45.3642 30.7981L37.9542 28.2728C37.3842 30.0554 36.2917 31.5903 34.8667 32.7291Z" fill="#E0E0E0"/>
<path d="M29.832 34.4126V42.533C33.2995 42.5825 36.672 41.4436 39.427 39.265L34.867 32.6796C33.3945 33.8184 31.637 34.4126 29.832 34.4126Z" fill="#E0E0E0"/>
<path d="M14.3469 30.7981L21.7569 28.2728L16.1519 25.1039L9.16943 26.7874L14.3469 30.7981Z" fill="#E0E0E0"/>
<path d="M14.3467 30.7982L9.16916 26.7875L0.95166 28.7185L6.50916 33.5215L14.3467 30.7982Z" fill="#E0E0E0"/>
<path d="M71.1094 20.2019C69.6844 18.865 68.4494 18.766 67.9269 18.766C67.3094 18.766 66.5969 18.865 66.0744 19.4592C65.7419 19.8058 65.5994 20.2514 65.5994 20.697C65.5994 21.0931 65.7419 21.5388 66.0269 21.7863C66.5019 22.232 67.1669 22.43 68.4494 22.9252L69.8744 23.4698C70.6819 23.7669 71.7269 24.2621 72.4869 25.0048C73.4369 25.9951 73.9594 27.332 73.9119 28.7184C73.9119 30.798 73.2469 32.5805 72.2019 33.6203C70.4919 35.4524 68.0694 35.6504 66.7869 35.6504C65.5044 35.6999 64.1744 35.4028 63.0344 34.8087C61.9894 34.2145 61.0394 33.4718 60.2319 32.63L62.5119 29.3621C63.0344 29.9067 63.6519 30.4514 64.2694 30.897C64.9819 31.3922 65.8369 31.6397 66.6919 31.5902C67.4044 31.6397 68.1169 31.3922 68.6869 30.897C69.1144 30.5009 69.3994 29.9067 69.3519 29.263C69.3519 28.7184 69.1144 28.1737 68.6869 27.8271C68.1644 27.3815 66.9769 26.9359 66.4544 26.7378L64.8394 26.2427C63.9369 25.9456 62.9394 25.4999 62.1794 24.6582C61.1819 23.5689 61.0394 22.1329 61.0394 21.1922C60.9919 19.5087 61.5619 17.9242 62.7019 16.7359C64.0319 15.2999 65.6469 14.9038 67.4044 14.9038C69.4469 14.9038 71.4419 15.597 73.0569 16.8844L71.1094 20.2019ZM88.8269 33.5213C87.6869 34.7097 85.7394 35.6504 83.2694 35.6504C80.7994 35.6504 78.8519 34.7097 77.7119 33.5213C75.1469 30.7485 75.1469 26.3912 77.7119 23.6184C78.8519 22.43 80.7994 21.4893 83.2694 21.4893C85.7394 21.4893 87.6869 22.43 88.8269 23.6184C91.3919 26.3912 91.3919 30.798 88.8269 33.5213ZM80.9419 26.0941C79.6594 27.53 79.6594 29.7087 80.9419 31.0951C81.5594 31.7388 82.4144 32.0854 83.2694 32.0359C84.1244 32.0854 84.9319 31.7388 85.5494 31.0951C86.8319 29.6592 86.8319 27.4805 85.5494 26.0941C84.2669 24.8067 82.2244 24.8067 80.9419 26.0941ZM102.792 26.1436C102.032 25.4999 101.082 25.1038 100.084 25.1533C99.2294 25.1533 98.3744 25.4504 97.7569 26.0941C97.1394 26.7873 96.8069 27.6786 96.8069 28.6193C96.8069 29.5106 97.0919 30.3524 97.6619 30.9961C98.3269 31.6893 99.2294 32.0854 100.132 32.0854C101.082 32.0854 102.032 31.6893 102.744 31.0456V34.9077C101.747 35.4524 100.607 35.7495 99.4669 35.6999C97.6144 35.7495 95.8569 35.0562 94.5269 33.7194C93.1969 32.3825 92.4844 30.5504 92.5319 28.6689C92.4844 26.6883 93.2919 24.8067 94.6219 23.4203C96.0469 22.0339 97.7569 21.5388 99.4669 21.5388C100.607 21.5388 101.699 21.7863 102.697 22.2815L102.792 26.1436ZM107.779 13.765C109.109 13.765 110.202 14.9038 110.202 16.2902C110.202 17.6766 109.109 18.8155 107.779 18.8155C106.449 18.8155 105.357 17.6766 105.357 16.2902C105.357 14.9038 106.402 13.8145 107.732 13.765C107.732 13.765 107.732 13.765 107.779 13.765ZM109.822 21.9349V35.2048H105.689V21.9349H109.822ZM122.979 21.9349H127.112V35.2048H122.979V33.5708C122.172 34.9077 120.747 35.6999 119.227 35.6504C117.374 35.6504 115.854 35.1553 114.429 33.6203C113.194 32.2834 112.529 30.5009 112.577 28.6193C112.529 26.6388 113.242 24.7077 114.572 23.2718C115.759 22.0834 117.374 21.4397 118.989 21.4397C120.082 21.4397 121.839 21.6873 122.979 23.3708V21.9349ZM117.754 26.1436C117.137 26.7873 116.804 27.6786 116.804 28.5698C116.804 29.4611 117.089 30.3028 117.659 30.9465C118.324 31.6397 119.179 31.9863 120.082 31.9863C120.889 31.9863 121.649 31.6397 122.219 31.0456C123.549 29.7087 123.549 27.4805 122.267 26.0941C121.649 25.4999 120.842 25.1533 119.987 25.1533C119.179 25.2028 118.372 25.5494 117.754 26.1436ZM134.427 13.5174V35.2543H130.294V13.5174H134.427ZM137.229 35.2543L140.269 15.3495H143.927L148.677 27.2329L153.427 15.3495H157.084L160.124 35.2543H155.707L154.187 23.3708L149.389 35.2543H147.822L143.024 23.3708L141.504 35.2543C141.647 35.2543 137.229 35.2543 137.229 35.2543ZM175.894 29.3126H166.394C166.394 30.1543 166.679 30.9465 167.154 31.5902C167.724 32.1844 168.484 32.4815 169.244 32.432C169.814 32.432 170.384 32.333 170.907 32.0359C171.287 31.7388 171.619 31.3922 171.809 30.9465L175.704 31.3426C175.324 32.7291 174.422 33.9174 173.234 34.6601C171.999 35.4524 170.622 35.6504 169.197 35.6504C167.297 35.6504 165.587 35.3038 164.114 33.7194C162.832 32.3329 162.167 30.5009 162.214 28.5698C162.214 26.6388 162.879 24.7572 164.162 23.3213C165.729 21.6873 167.629 21.3902 169.054 21.3902C170.479 21.3902 172.522 21.6378 174.137 23.3708C175.657 25.0543 175.942 27.1339 175.942 28.7679L175.894 29.3126ZM172.094 26.7873C171.952 26.1931 171.667 25.6485 171.287 25.2524C170.099 24.2126 168.389 24.2621 167.249 25.3514C166.869 25.7475 166.632 26.2427 166.537 26.7873H172.094ZM192.282 35.2543H188.149V33.6203C187.532 34.5611 186.392 35.6999 184.112 35.6999C182.212 35.6999 180.834 35.0562 179.742 33.8679C178.412 32.432 177.699 30.5009 177.747 28.5203C177.747 26.3417 178.507 24.5096 179.742 23.2718C180.929 22.0834 182.544 21.4893 184.159 21.4893C185.584 21.4893 187.104 21.9844 188.149 23.4203V13.4679H192.282V35.2543ZM182.972 26.0941C182.307 26.7378 181.927 27.6786 181.974 28.6193C181.974 29.5601 182.354 30.4514 182.972 31.0456C183.542 31.6397 184.302 31.9368 185.109 31.9863C185.964 31.9863 186.819 31.6397 187.437 30.9961C188.054 30.3524 188.387 29.5106 188.387 28.6193C188.387 27.7281 188.102 26.8368 187.484 26.1931C186.867 25.5494 186.059 25.1533 185.157 25.2028C184.349 25.1533 183.542 25.4999 182.972 26.0941ZM197.792 13.765C199.122 13.765 200.214 14.9038 200.214 16.2902C200.214 17.6766 199.122 18.8155 197.792 18.8155C196.462 18.8155 195.369 17.6766 195.369 16.2902C195.369 14.9038 196.414 13.8145 197.744 13.765C197.792 13.765 197.792 13.765 197.792 13.765ZM199.882 21.9349V35.2048H195.749V21.9349H199.882ZM213.039 21.9349H217.172V35.2048H213.039V33.5708C212.232 34.9077 210.807 35.6999 209.287 35.6504C207.434 35.6504 205.914 35.1553 204.489 33.6203C203.254 32.2834 202.589 30.5009 202.637 28.6193C202.589 26.6388 203.302 24.7077 204.632 23.2718C205.819 22.0834 207.434 21.4397 209.049 21.4397C210.142 21.4397 211.899 21.6873 213.039 23.3708V21.9349ZM207.814 26.1436C207.197 26.7873 206.864 27.6786 206.864 28.5698C206.864 29.4611 207.149 30.3028 207.719 30.9465C208.384 31.6397 209.239 31.9863 210.142 31.9863C210.949 31.9863 211.709 31.6397 212.279 31.0456C213.609 29.7087 213.609 27.4805 212.327 26.0941C211.709 25.4999 210.902 25.1533 210.047 25.1533C209.192 25.2028 208.384 25.5494 207.814 26.1436ZM225.769 17.4291V35.2048H223.679V17.4291H219.024V15.3495H230.424V17.4291H225.769ZM229.474 29.1145C229.474 25.3514 232.134 22.5786 235.744 22.5786C239.354 22.5786 242.014 25.3514 242.014 29.1145C242.014 32.8776 239.307 35.6009 235.744 35.6009C232.182 35.6009 229.474 32.8776 229.474 29.1145ZM231.612 29.1145C231.612 32.1349 233.654 33.7194 235.792 33.7194C237.929 33.7194 239.972 32.1349 239.972 29.1145C239.972 26.0941 237.977 24.5096 235.792 24.5096C233.607 24.4601 231.612 26.0941 231.612 29.1145ZM254.222 13.5174H256.264V35.2543H254.222V33.5213C253.272 34.8582 251.752 35.6504 250.184 35.6009C247.192 35.6009 244.389 33.4223 244.389 29.065C244.389 24.8067 247.144 22.5786 250.184 22.5786C251.799 22.5291 253.272 23.3213 254.222 24.6582V13.5174ZM246.479 29.0155C246.479 31.6893 247.904 33.6698 250.374 33.6698C252.892 33.6698 254.317 31.4912 254.317 29.065C254.317 25.8961 252.227 24.4601 250.374 24.4601C248.332 24.4601 246.479 26.0446 246.479 29.0155ZM269.137 22.8757H271.179V35.2543H269.137V33.5213C268.187 34.8582 266.667 35.6504 265.099 35.6009C262.107 35.6009 259.304 33.4223 259.304 29.065C259.304 24.8067 262.059 22.5786 265.099 22.5786C266.714 22.5291 268.187 23.3213 269.137 24.6582V22.8757ZM261.394 29.0155C261.394 31.6893 262.819 33.6698 265.289 33.6698C267.807 33.6698 269.232 31.4912 269.232 29.065C269.232 25.8961 267.142 24.4601 265.289 24.4601C263.247 24.4601 261.394 26.0446 261.394 29.0155ZM278.732 34.0659L273.269 22.8757H275.597L279.824 31.7388L283.672 22.8757H285.952L277.212 42.0873H274.932L278.732 34.0659Z" fill="#E0E0E0"/>
</g>
<defs>
<clipPath id="clip0_20_115">
<rect width="285" height="51" fill="white" transform="translate(0.761719)"/>
</clipPath>
</defs>
</svg>
