<svg width="131" height="168" viewBox="0 0 131 168" fill="none" xmlns="http://www.w3.org/2000/svg">
<path d="M38.5396 70.8808C35.8351 70.8808 33.2432 70.3855 30.7641 69.395C28.285 68.3594 26.1664 66.8961 24.4085 65.005C22.6956 63.069 21.5687 60.8402 21.0278 58.3188L30.2908 55.2121C30.9219 57.2832 31.9586 58.8366 33.401 59.8722C34.8885 60.9078 36.6014 61.4255 38.5396 61.4255C40.8835 61.4255 42.7766 60.7052 44.2191 59.2643C45.6615 57.7785 46.3827 55.8649 46.3827 53.5236C46.3827 51.1824 45.6615 49.2913 44.2191 47.8505C42.7766 46.4096 40.8835 45.6893 38.5396 45.6893C36.8718 45.6893 35.4068 46.0495 34.1447 46.7699C32.8827 47.4902 31.9811 48.5484 31.4402 49.9441L22.8534 47.918L26.9102 19.7548H55.0371V28.5347H34.4828L33.1305 38.5303C35.0237 37.4497 37.4803 36.9094 40.5003 36.9094C43.7908 36.9094 46.6757 37.6073 49.1548 39.003C51.6339 40.3988 53.5271 42.3574 54.8343 44.8788C56.1865 47.4002 56.8627 50.2818 56.8627 53.5236C56.8627 56.8104 56.0739 59.7821 54.4962 62.4386C52.9186 65.05 50.7325 67.1212 47.9378 68.6521C45.1431 70.1379 42.0104 70.8808 38.5396 70.8808ZM65.1965 70.0704C63.6189 70.0704 62.2891 69.5301 61.2073 68.4495C60.1255 67.3689 59.5846 66.0406 59.5846 64.4647C59.5846 62.8888 60.1255 61.5832 61.2073 60.5476C62.2891 59.4669 63.6189 58.9266 65.1965 58.9266C66.7741 58.9266 68.0813 59.4669 69.118 60.5476C70.1998 61.5832 70.7407 62.8888 70.7407 64.4647C70.7407 66.0856 70.2224 67.4364 69.1856 68.517C68.149 69.5526 66.8192 70.0704 65.1965 70.0704ZM93.8106 70.8808C89.8442 70.8808 86.3284 69.8002 83.2629 67.639C80.1977 65.4778 77.8087 62.4386 76.0959 58.5214C74.383 54.5592 73.5266 50.0117 73.5266 44.8788C73.5266 39.7459 74.3605 35.2209 76.0283 31.3037C77.7411 27.3865 80.1301 24.3474 83.1953 22.1861C86.2608 20.0249 89.7766 18.9443 93.743 18.9443C97.7998 18.9443 101.36 20.0249 104.426 22.1861C107.491 24.3474 109.858 27.3865 111.525 31.3037C113.238 35.2209 114.094 39.7459 114.094 44.8788C114.094 50.0117 113.238 54.5592 111.525 58.5214C109.858 62.4386 107.491 65.4778 104.426 67.639C101.36 69.8002 97.8226 70.8808 93.8106 70.8808ZM84.0066 44.8788C84.0066 50.0567 84.8629 54.1089 86.576 57.0356C88.2891 59.9622 90.7004 61.4255 93.8106 61.4255C96.9208 61.4255 99.332 59.9847 101.045 57.1031C102.758 54.1765 103.614 50.1018 103.614 44.8788C103.614 39.6559 102.758 35.6036 101.045 32.722C99.332 29.8404 96.898 28.3996 93.743 28.3996C90.6328 28.3996 88.2215 29.8404 86.5084 32.722C84.8409 35.6036 84.0066 39.6559 84.0066 44.8788Z" fill="#232121"/>
<mask id="mask0_113_268" style="mask-type:luminance" maskUnits="userSpaceOnUse" x="0" y="135" width="131" height="33">
<path d="M131 135.919H0V168H131V135.919Z" fill="white"/>
</mask>
<g mask="url(#mask0_113_268)">
<path d="M34.4266 147.29H47.6908V149.757H42.4753V163.629H39.6074V149.757H34.415V147.29H34.4266ZM47.1242 151.799H49.5758V154.081H49.622C49.703 153.759 49.8533 153.447 50.0731 153.148C50.2927 152.848 50.5588 152.559 50.871 152.317C51.1832 152.064 51.5301 151.867 51.9118 151.706C52.2934 151.556 52.6866 151.475 53.0798 151.475C53.3805 151.475 53.6002 151.487 53.7158 151.498C53.8314 151.51 53.9471 151.533 54.0743 151.544V154.059C53.8892 154.024 53.7042 154 53.5077 153.977C53.3111 153.955 53.1261 153.943 52.941 153.943C52.5016 153.943 52.0852 154.035 51.6921 154.208C51.2989 154.381 50.9636 154.646 50.6744 154.98C50.3853 155.327 50.1541 155.742 49.9805 156.249C49.8071 156.757 49.7261 157.333 49.7261 157.991V163.618H47.1126V151.799H47.1242ZM66.0896 163.629H63.5223V161.981H63.4761C63.1522 162.58 62.6781 163.053 62.0421 163.41C61.406 163.768 60.7585 163.952 60.0993 163.952C58.5381 163.952 57.4048 163.572 56.711 162.799C56.0171 162.026 55.6702 160.862 55.6702 159.305V151.799H58.2837V159.051C58.2837 160.09 58.4802 160.827 58.8851 161.254C59.2782 161.681 59.8448 161.9 60.5619 161.9C61.117 161.9 61.568 161.819 61.938 161.646C62.3081 161.473 62.6087 161.254 62.8284 160.966C63.0598 160.689 63.2216 160.343 63.3257 159.951C63.4298 159.559 63.4761 159.132 63.4761 158.67V151.81H66.0896V163.629ZM70.5418 159.836C70.6228 160.597 70.9119 161.127 71.4091 161.439C71.918 161.738 72.5193 161.9 73.2248 161.9C73.4676 161.9 73.7451 161.877 74.0573 161.842C74.3696 161.808 74.6702 161.727 74.9362 161.623C75.2138 161.519 75.4335 161.358 75.6185 161.15C75.792 160.942 75.8729 160.677 75.8614 160.343C75.8498 160.009 75.7226 159.732 75.4913 159.524C75.26 159.305 74.9709 159.143 74.6124 159.006C74.2539 158.878 73.8492 158.763 73.3866 158.67C72.924 158.578 72.4615 158.475 71.9874 158.371C71.5016 158.267 71.0275 158.129 70.5765 157.979C70.1255 157.829 69.7207 157.621 69.3623 157.356C69.0038 157.103 68.7146 156.768 68.5065 156.365C68.2868 155.961 68.1827 155.465 68.1827 154.866C68.1827 154.22 68.3446 153.69 68.6568 153.251C68.969 152.813 69.3738 152.467 69.8479 152.202C70.3336 151.936 70.8656 151.752 71.4554 151.636C72.0452 151.533 72.6118 151.475 73.1438 151.475C73.7567 151.475 74.3465 151.544 74.9016 151.671C75.4567 151.799 75.9654 152.005 76.4164 152.306C76.8675 152.594 77.2375 152.975 77.5382 153.435C77.8388 153.897 78.0239 154.462 78.1048 155.119H75.3757C75.2485 154.497 74.9709 154.069 74.5199 153.863C74.0689 153.643 73.5485 153.539 72.9703 153.539C72.7853 153.539 72.5655 153.551 72.3111 153.586C72.0567 153.62 71.8254 153.678 71.5942 153.759C71.3744 153.839 71.1894 153.966 71.0275 154.128C70.8772 154.289 70.7962 154.497 70.7962 154.762C70.7962 155.084 70.9119 155.338 71.1315 155.534C71.3513 155.73 71.6404 155.892 71.9989 156.03C72.3574 156.157 72.7621 156.272 73.2248 156.365C73.6873 156.457 74.1614 156.561 74.6472 156.665C75.1213 156.768 75.5839 156.907 76.0464 157.056C76.509 157.207 76.9137 157.414 77.2722 157.679C77.6307 157.944 77.9198 158.267 78.1395 158.66C78.3593 159.051 78.4749 159.548 78.4749 160.124C78.4749 160.827 78.313 161.415 77.9892 161.911C77.6654 162.395 77.2491 162.799 76.7403 163.099C76.2314 163.399 75.6532 163.629 75.0288 163.768C74.4043 163.906 73.7798 163.976 73.1669 163.976C72.4153 163.976 71.7214 163.895 71.0853 163.721C70.4493 163.548 69.8942 163.295 69.4317 162.961C68.9691 162.615 68.599 162.188 68.3331 161.681C68.0671 161.173 67.9283 160.562 67.9051 159.858H70.5418V159.836ZM79.1688 151.799H81.1463V148.246H83.7598V151.799H86.1193V153.747H83.7598V160.066C83.7598 160.343 83.7714 160.573 83.7944 160.781C83.8176 160.977 83.8754 161.15 83.9564 161.288C84.0373 161.427 84.1645 161.531 84.338 161.6C84.5115 161.669 84.7315 161.704 85.0316 161.704C85.2167 161.704 85.4018 161.704 85.5868 161.692C85.7719 161.681 85.957 161.657 86.1421 161.612V163.629C85.8531 163.664 85.564 163.687 85.2978 163.721C85.0206 163.756 84.7425 163.768 84.4537 163.768C83.7598 163.768 83.2047 163.699 82.7884 163.572C82.372 163.445 82.0367 163.249 81.8054 162.995C81.5625 162.741 81.4123 162.43 81.3197 162.05C81.2388 161.669 81.1809 161.231 81.1694 160.746V153.77H79.1919V151.799H79.1688ZM87.9694 151.799H90.444V153.401H90.4905C90.8598 152.709 91.3694 152.225 92.0278 151.925C92.687 151.625 93.3928 151.475 94.1678 151.475C95.1042 151.475 95.9139 151.636 96.6077 151.971C97.3016 152.294 97.8797 152.744 98.342 153.321C98.8052 153.897 99.1399 154.566 99.3714 155.327C99.603 156.088 99.7188 156.907 99.7188 157.771C99.7188 158.568 99.614 159.34 99.4061 160.078C99.1982 160.827 98.8855 161.484 98.4696 162.061C98.053 162.637 97.5214 163.087 96.874 163.434C96.2257 163.779 95.4744 163.952 94.5954 163.952C94.2143 163.952 93.8322 163.917 93.4502 163.848C93.0691 163.779 92.6989 163.664 92.3524 163.514C92.005 163.364 91.6695 163.169 91.3804 162.926C91.0796 162.684 90.837 162.407 90.6291 162.095H90.5826V168H87.9694V151.799ZM97.1047 157.725C97.1047 157.195 97.0354 156.676 96.8968 156.168C96.7582 155.661 96.5494 155.223 96.2722 154.831C95.995 154.439 95.6477 154.128 95.2428 153.897C94.827 153.666 94.3529 153.539 93.8204 153.539C92.7217 153.539 91.8892 153.92 91.3339 154.681C90.7795 155.442 90.5015 156.457 90.5015 157.725C90.5015 158.325 90.5708 158.878 90.7212 159.386C90.8716 159.893 91.0796 160.331 91.3804 160.7C91.6695 161.07 92.0168 161.358 92.4217 161.565C92.8265 161.784 93.3006 161.888 93.8322 161.888C94.434 161.888 94.931 161.761 95.3468 161.519C95.7634 161.277 96.099 160.954 96.3652 160.573C96.6306 160.182 96.8275 159.744 96.9433 159.247C97.0472 158.752 97.1047 158.244 97.1047 157.725ZM101.719 147.29H104.333V149.757H101.719V147.29ZM101.719 151.799H104.333V163.629H101.719V151.799ZM106.669 147.29H109.282V163.629H106.669V147.29ZM117.296 163.952C116.348 163.952 115.504 163.791 114.764 163.479C114.023 163.169 113.399 162.73 112.879 162.188C112.37 161.635 111.976 160.977 111.711 160.216C111.445 159.455 111.306 158.613 111.306 157.702C111.306 156.803 111.445 155.972 111.711 155.212C111.976 154.45 112.37 153.793 112.879 153.24C113.388 152.686 114.023 152.259 114.764 151.948C115.504 151.636 116.348 151.475 117.296 151.475C118.245 151.475 119.088 151.636 119.829 151.948C120.569 152.259 121.193 152.698 121.714 153.24C122.223 153.793 122.616 154.45 122.881 155.212C123.148 155.972 123.286 156.803 123.286 157.702C123.286 158.613 123.148 159.455 122.881 160.216C122.616 160.977 122.223 161.635 121.714 162.188C121.204 162.741 120.569 163.169 119.829 163.479C119.088 163.791 118.245 163.952 117.296 163.952ZM117.296 161.888C117.875 161.888 118.383 161.761 118.811 161.519C119.239 161.277 119.586 160.954 119.863 160.562C120.141 160.17 120.337 159.72 120.476 159.224C120.604 158.729 120.673 158.221 120.673 157.702C120.673 157.195 120.604 156.699 120.476 156.192C120.349 155.684 120.141 155.246 119.863 154.854C119.586 154.462 119.239 154.151 118.811 153.908C118.383 153.666 117.875 153.539 117.296 153.539C116.718 153.539 116.209 153.666 115.781 153.908C115.353 154.151 115.006 154.473 114.729 154.854C114.452 155.246 114.255 155.684 114.116 156.192C113.988 156.699 113.919 157.195 113.919 157.702C113.919 158.221 113.988 158.729 114.116 159.224C114.243 159.72 114.452 160.17 114.729 160.562C115.006 160.954 115.353 161.277 115.781 161.519C116.209 161.773 116.718 161.888 117.296 161.888ZM124.049 151.799H126.027V148.246H128.641V151.799H131V153.747H128.641V160.066C128.641 160.343 128.652 160.573 128.676 160.781C128.699 160.977 128.756 161.15 128.837 161.288C128.918 161.427 129.045 161.531 129.219 161.6C129.392 161.669 129.612 161.704 129.913 161.704C130.098 161.704 130.283 161.704 130.467 161.692C130.653 161.681 130.838 161.657 131.023 161.612V163.629C130.734 163.664 130.445 163.687 130.178 163.721C129.901 163.756 129.624 163.768 129.335 163.768C128.641 163.768 128.086 163.699 127.669 163.572C127.253 163.445 126.918 163.249 126.686 162.995C126.444 162.741 126.293 162.43 126.2 162.05C126.12 161.669 126.062 161.231 126.051 160.746V153.77H124.073V151.799H124.049Z" fill="#232121"/>
<path d="M31.3738 147.289H19.3932L15.6927 135.919L11.9806 147.289L0 147.278L9.70245 154.312L5.99029 165.671L15.6927 158.648L25.3836 165.671L21.683 154.312L31.3738 147.289Z" fill="#232121"/>
<path d="M22.5158 156.884L21.6831 154.312L15.6929 158.648L22.5158 156.884Z" fill="#232121"/>
</g>
<path d="M17.2873 92.8643L19.8404 100.713H28.1021L21.4182 105.564L23.9712 113.413L17.2873 108.562L10.6035 113.413L13.1565 105.564L6.47266 100.713H14.7344L17.2873 92.8643Z" fill="#232121"/>
<path d="M42.8728 92.8643L45.4258 100.713H53.6875L47.0036 105.564L49.5567 113.413L42.8728 108.562L36.1889 113.413L38.7419 105.564L32.0581 100.713H40.3198L42.8728 92.8643Z" fill="#232121"/>
<path d="M68.4578 92.8643L71.0108 100.713H79.2725L72.5886 105.564L75.1416 113.413L68.4578 108.562L61.774 113.413L64.3269 105.564L57.6431 100.713H65.9048L68.4578 92.8643Z" fill="#232121"/>
<path d="M94.0438 92.8643L96.597 100.713H104.858L98.1749 105.564L100.727 113.413L94.0438 108.562L87.3602 113.413L89.9126 105.564L83.229 100.713H91.4905L94.0438 92.8643Z" fill="#232121"/>
<path d="M119.628 92.8643L122.181 100.713H130.443L123.759 105.564L126.313 113.413L119.628 108.562L112.945 113.413L115.498 105.564L108.813 100.713H117.076L119.628 92.8643Z" fill="#232121"/>
</svg>
