<svg xmlns="http://www.w3.org/2000/svg" width="34" height="24" viewBox="0 0 34 24" fill="none"><metadata><rdf:RDF xmlns:rdf="http://www.w3.org/1999/02/22-rdf-syntax-ns#" xmlns:dc="http://purl.org/dc/elements/1.1/"><rdf:Description><dc:creator>RealFaviconGenerator</dc:creator><dc:source>https://realfavicongenerator.net</dc:source></rdf:Description></rdf:RDF></metadata><g clip-path="url(#clip0_13_18)">
<mask id="mask0_13_18" style="mask-type:luminance" maskUnits="userSpaceOnUse" x="0" y="0" width="30" height="24">
<path d="M0 0H30V24H0V0Z" fill="white"></path>
</mask>
<g mask="url(#mask0_13_18)">
<path d="M22.4918 7.79346L14.9945 24.0247L7.49658 7.79346L14.9945 15.5869L22.4918 7.79346Z" fill="#E700CB"></path>
<path d="M18.373 21.0166L29.9883 0L22.4904 7.79344L18.373 21.0166Z" fill="#FFCE00"></path>
<path d="M11.6139 21.0166L-0.000976562 0L7.49638 7.79344L11.6139 21.0166Z" fill="#FFCE00"></path>
<path d="M14.9932 15.5869L29.9884 0L14.9932 10.0044V15.5869Z" fill="#FF0828"></path>
<path d="M14.9943 15.5869L-0.000976562 0L14.9943 10.0044V15.5869Z" fill="#FF0828"></path>
<path d="M11.6141 21.0166L5.80664 12.3802H6.84103L11.6141 21.0166Z" fill="#DFB400"></path>
<path d="M23.147 12.3802L18.374 21.0166L24.1819 12.3802H23.147Z" fill="#DFB400"></path>
<path d="M14.9941 10.0044L22.4914 3.7583V5.00217L14.9941 10.0044Z" fill="#FF0828"></path>
<path d="M14.9945 10.0044L7.49658 3.7583V5.00217L14.9945 10.0044Z" fill="#FF0828"></path>
</g>
<path d="M36.242 4.61H39.982L43.832 16.6L47.682 4.61H51.422L45.812 21H41.852L36.242 4.61ZM52.4321 8.988H55.7321V21H52.4321V8.988ZM52.2341 5.6C52.2341 4.99867 52.3954 4.544 52.7181 4.236C53.0408 3.91333 53.4954 3.752 54.0821 3.752C54.6834 3.752 55.1381 3.91333 55.4461 4.236C55.7688 4.544 55.9301 4.99867 55.9301 5.6C55.9301 6.20133 55.7688 6.66333 55.4461 6.986C55.1381 7.294 54.6834 7.448 54.0821 7.448C53.4954 7.448 53.0408 7.28667 52.7181 6.964C52.3954 6.64133 52.2341 6.18667 52.2341 5.6ZM57.707 8.988H60.787V10.792C61.0803 10.088 61.4983 9.58933 62.041 9.296C62.5836 9.00267 63.251 8.856 64.043 8.856H64.747V11.716H63.713C62.8916 11.716 62.2316 11.9653 61.733 12.464C61.249 12.9627 61.007 13.652 61.007 14.532V21H57.707V8.988ZM69.4713 21.264C68.1659 21.264 67.1393 20.956 66.3913 20.34C65.6433 19.724 65.2693 18.8733 65.2693 17.788C65.2693 16.7613 65.6213 15.9253 66.3253 15.28C67.0439 14.62 68.1146 14.1727 69.5373 13.938L72.8593 13.41V13.08C72.8593 12.6253 72.6759 12.244 72.3093 11.936C71.9426 11.628 71.4586 11.474 70.8573 11.474C70.2706 11.474 69.7499 11.6353 69.2953 11.958C68.8553 12.266 68.5326 12.6913 68.3273 13.234L65.6873 11.98C66.0393 10.9827 66.6919 10.1907 67.6453 9.604C68.6133 9.01733 69.7353 8.724 71.0113 8.724C72.0086 8.724 72.8959 8.90733 73.6733 9.274C74.4653 9.64067 75.0739 10.154 75.4993 10.814C75.9393 11.474 76.1593 12.2293 76.1593 13.08V21H73.0793V19.878C72.6099 20.3473 72.0819 20.6993 71.4953 20.934C70.9086 21.154 70.2339 21.264 69.4713 21.264ZM68.6793 17.678C68.6793 18.0447 68.8113 18.3307 69.0753 18.536C69.3539 18.7413 69.7059 18.844 70.1313 18.844C70.9379 18.844 71.5906 18.5947 72.0893 18.096C72.6026 17.5827 72.8593 16.952 72.8593 16.204V15.83L70.1313 16.314C69.6473 16.402 69.2806 16.556 69.0313 16.776C68.7966 16.996 68.6793 17.2967 68.6793 17.678ZM78.1395 4.346H81.4395V21H78.1395V4.346ZM83.4143 4.346H86.7143V21H83.4143V4.346ZM88.6891 8.988H91.9891V21H88.6891V8.988ZM88.4911 5.6C88.4911 4.99867 88.6525 4.544 88.9751 4.236C89.2978 3.91333 89.7525 3.752 90.3391 3.752C90.9405 3.752 91.3951 3.91333 91.7031 4.236C92.0258 4.544 92.1871 4.99867 92.1871 5.6C92.1871 6.20133 92.0258 6.66333 91.7031 6.986C91.3951 7.294 90.9405 7.448 90.3391 7.448C89.7525 7.448 89.2978 7.28667 88.9751 6.964C88.6525 6.64133 88.4911 6.18667 88.4911 5.6ZM92.996 18.36L98.914 11.848H93.282V8.988H103.314V11.628L97.572 18.14H103.336V21H92.996V18.36ZM110.138 21.264C108.906 21.264 107.813 20.9853 106.86 20.428C105.907 19.8707 105.166 19.1153 104.638 18.162C104.125 17.194 103.868 16.1307 103.868 14.972C103.868 13.7987 104.132 12.7353 104.66 11.782C105.188 10.8287 105.914 10.0807 106.838 9.538C107.762 8.99533 108.789 8.724 109.918 8.724C111.15 8.724 112.213 8.98067 113.108 9.494C114.003 10.0073 114.685 10.7187 115.154 11.628C115.623 12.5227 115.858 13.5273 115.858 14.642C115.858 15.1847 115.807 15.61 115.704 15.918H107.3C107.403 16.6807 107.703 17.2893 108.202 17.744C108.715 18.184 109.375 18.404 110.182 18.404C110.754 18.404 111.253 18.2867 111.678 18.052C112.103 17.8173 112.433 17.4947 112.668 17.084L115.308 18.338C114.941 19.218 114.289 19.9293 113.35 20.472C112.426 21 111.355 21.264 110.138 21.264ZM112.36 13.498C112.287 12.8527 112.03 12.3393 111.59 11.958C111.15 11.562 110.593 11.364 109.918 11.364C109.258 11.364 108.701 11.5473 108.246 11.914C107.806 12.2807 107.513 12.8087 107.366 13.498H112.36ZM123.015 21.264C121.857 21.264 120.808 20.9853 119.869 20.428C118.945 19.8707 118.212 19.1153 117.669 18.162C117.141 17.2087 116.877 16.1527 116.877 14.994C116.877 13.8353 117.149 12.7793 117.691 11.826C118.234 10.8727 118.967 10.1173 119.891 9.56C120.83 9.00267 121.864 8.724 122.993 8.724C123.697 8.724 124.343 8.834 124.929 9.054C125.531 9.274 126.037 9.58933 126.447 10V4.346H129.747V21H126.667V19.856C126.242 20.3107 125.714 20.6627 125.083 20.912C124.453 21.1467 123.763 21.264 123.015 21.264ZM120.287 14.994C120.287 15.962 120.581 16.754 121.167 17.37C121.754 17.986 122.502 18.294 123.411 18.294C124.306 18.294 125.032 17.9933 125.589 17.392C126.161 16.776 126.447 15.9767 126.447 14.994C126.447 14.026 126.161 13.234 125.589 12.618C125.032 12.002 124.306 11.694 123.411 11.694C122.502 11.694 121.754 12.0093 121.167 12.64C120.581 13.256 120.287 14.0407 120.287 14.994Z" fill="black" fill-opacity="0.9"></path>
</g><defs>
<clipPath id="clip0_13_18">
<rect width="131" height="24" fill="white"></rect>
</clipPath>
</defs></svg>